/* XPM */
static char * xpm[] = {
"64 64 63 2",
"aa c #ffffff"
"ab c #fefefe"
"ac c #fbfbfb"
"ad c #fafafa"
"ae c #f8f8f8"
"af c #f0f0f0"
"ag c #efefef"
"ah c #e8e8e8"
"ai c #e4e4e4"
"aj c #e3e3e3"
"ak c #e2e2e2"
"al c #e1e1e1"
"am c #e0e0e0"
"an c #dfdfdf"
"ao c #dddddd"
"ap c #dcdcdc"
"aq c #d8d8d8"
"ar c #d6d6d6"
"as c #c9c9c9"
"at c #c3c3c3"
"au c #b9b9b9"
"av c #9e9e9e"
"aw c #9d9d9d"
"ax c #9c9c9c"
"ay c #9b9b9b"
"az c #9a9a9a"
"aA c #999999"
"aB c #8d8d8d"
"aC c #898989"
"aD c #818181"
"aE c #7d7d7d"
"aF c #7c7c7c"
"aG c #7b7b7b"
"aH c #787878"
"aI c #767676"
"aJ c #5f5f5f"
"aK c #5a5a5a"
"aL c #585858"
"aM c #525252"
"aN c #4b4b4b"
"aO c #484848"
"aP c #454545"
"aQ c #424242"
"aR c #3f3f3f"
"aS c #3c3c3c"
"aT c #393939"
"aU c #303030"
"aV c #242424"
"aW c #1a1a1a"
"aX c #141414"
"aY c #0e0e0e"
"aZ c #0d0d0d"
"ba c #0c0c0c"
"bb c #0b0b0b"
"bc c #0a0a0a"
"bd c #090909"
"be c #080808"
"bf c #060606"
"bg c #040404"
"bh c #030303"
"bi c #020202"
"bj c #010101"
"bk c #000000"
"aaaaaaaaaaaaaaaaaaaaaaaaaaaaaaaaaaaaaaaaaaaaaaaaaaaaaaaaaaaaaaaaaaaaaaaaaaaaaaaaaaaaaaaaaaaaaaaaaaaaaaaaaaaaaaaaaaaaaaaaaaaaaaaa"
"aaaaaaaaaaaaaaaaaaaaaaaaaaaaaaaaaaaaaaaaaaaaaaaaaaaaaaaaaaaaaaaaaaaaaaaaaaaaaaaaaaaaaaaaaaaaaaaaaaaaaaaaaaaaaaaaaaaaaaaaaaaaaaaa"
"aaaaaaaaaaaaaaaaaaaaaaaaaaaaaaaaaaaaaaaaaaaaaaaaaaaaaaaaaaaaaaaaaaaaaaaaaaaaaaaaaaaaaaaaaaaaaaaaaaaaaaaaaaaaaaaaaaaaaaaaaaaaaaaa"
"aaaaaaaaaaaaaaaaaaaaaaaaaaaaaaaaaaaaaaaaaaaaaaaaaaaaaaaaaaaaaaaaaaaaaaaaaaaaaaaaaaaaaaaaaaaaaaaaaaaaaaaaaaaaaaaaaaaaaaaaaaaaaaaa"
"aaaaaaaaaaaaaaaaaaaaaaaaaaaaaaaaaaaaaaaaaaaaaaaaaaaaaaaaaaaaaaaaaaaaaaaaaaaaaaaaaaaaaaaaaaaaaaaaaaaaaaaaaaaaaaaaaaaaaaaaaaaaaaaa"
"aaaaaaaaaaaaaaaaaaaaaaaaaaaaaaaaaaaaaaaaaaaaaaaaaaaaaaaaaaaaaaaaaaaaaaaaaaaaaaaaaaaaaaaaaaaaaaaaaaaaaaaaaaaaaaaaaaaaaaaaaaaaaaaa"
"aaaaaaaaaaaaaaaaaaaaaaaaaaaaaaaaaaaaaaaaaaaaaaaaaaaaaaaaaaaaaaaaaaaaaaaaaaaaaaaaaaaaaaaaaaaaaaaaaaaaaaaaaaaaaaaaaaaaaaaaaaaaaaaa"
"aaaaaaaaaaaaaaaaaaaaaaaaaaaaaaaaaaaaaaaaaaaaaaaaaaaaaaaaaaaaaaaaaaaaaaaaaaaaaaaaaaaaaaaaaaaaaaaaaaaaaaaaaaaaaaaaaaaaaaaaaaaaaaaa"
"aaaaaaaaaaaaaaaaaaaaaaaaaaaaaaaaaaaaaaaaaaaaaaaaaaaaaaaaaaaaaaaaaaaaaaaaaaaaaaaaaaaaaaaaaaaaaaaaaaaaaaaaaaaaaaaaaaaaaaaaaaaaaaaa"
"aaaaaaaaaaaaaaaaaaaaaaaaaaaaaaaaagaxaAaAaAaAaAaAaAaAaAaAaAaAaAaAaAaAaAaAaAaAaAaAaAaAaAaAaAaAavafaaaaaaaaaaaaaaaaaaaaaaaaaaaaaaaa"
"aaaaaaaaaaaaaaaaaaaaaaaaaaaaaaaaapbjbkbkbkbkbkbkbkbkbkbkbkbkbkbkbkbkbkbkbkbkbkbkbkbkbkbkbkbkbgamaaaaaaaaaaaaaaaaaaaaaaaaaaaaaaaa"
"aaaaaaaaaaaaaaaaaaaaaaaaaaaaaaaaaobbbkbkbkbkbkbkbkbkbkbkbkbkbkbkbkbkbkbkbkbkbkbkbkbkbkbkbkbkaYalaaaaaaaaaaaaaaaaaaaaaaaaaaaaaaaa"
"aaaaaaaaaaaaaaaaaaaaaaaaaaaaaaaaaobbbkbkbkbkbkbkbkbkbkbkbkbkbkbkbkbkbkbkbkbkbkbkbkbkbkbkbkbkaYalaaaaaaaaaaaaaaaaaaaaaaaaaaaaaaaa"
"aaaaaaaaaaaaaaaaaaaaaaaaaaaaaaaaaobbbkbkbkbkbkbkbkbkbkbkbkbkbkbkbkbkbkbkbkbkbkbkbkbkbkbkbkbkaYalaaaaaaaaaaaaaaaaaaaaaaaaaaaaaaaa"
"aaaaaaaaaaaaaaaaaaaaaaaaaaaaaaaaaobbbkbkbkbkbkbkbkbkbkbkbkbkbkbkbkbkbkbkbkbkbkbkbkbkbkbkbkbkaYalaaaaaaaaaaaaaaaaaaaaaaaaaaaaaaaa"
"aaaaaaaaaaaaaaaaaaaaaaaaaaaaaaaaaobbbkbkbkbkbkbkbkbkbkbkbkbkbkbkbkbkbkbkbkbkbkbkbkbkbkbkbkbkaYalaaaaaaaaaaaaaaaaaaaaaaaaaaaaaaaa"
"aaaaaaaaaaaaaaaaaaaaaaaaaaaaaaaaaobcbkbkbkbkbkbkbkbkbkbkbkbkbkbkbkbkbkbkbkbkbkbkbkbkbkbkbkbkaYalaaaaaaaaaaaaaaaaaaaaaaaaaaaaaaaa"
"aaaaaaaaaaaaaaaaaaaaaaaaaaaaaaaaapaYbfbgbkbkbkbkbkbkbkbkbjbfbfbfbfbfbfbfbfbhbjbkbkbkbkbkbkbkaYalaaaaaaaaaaaaaaaaaaaaaaaaaaaaaaaa"
"aaaaaaaaaaaaaaaaaaaaaaaaaaaaaaaaaeaqaraNbkbkbkbkbkbkbkbkbbauarararararararaTbkbkbkbkbkbkbkbkaYalaaaaaaaaaaaaaaaaaaaaaaaaaaaaaaaa"
"aaaaaaaaaaaaaaaaaaaaaaaaaaaaaaaaaaaaaaaKbkbkbkbkbkbkbkbkaZaiaaaaaaaaaaaaaaaQbkbkbkbkbkbkbkbkaYalaaaaaaaaaaaaaaaaaaaaaaaaaaaaaaaa"
"aaaaaaaaaaaaaaaaaaaaaaaaaaaaaaaaaaaaaaaLbkbkbkbkbkbkbkbkaZanaaaaaaaaaaaaaaaSbkbkbkbkbkbkbkbkbfamaaaaaaaaaaaaaaaaaaaaaaaaaaaaaaaa"
"aaaaaaaaaaaaaaaaaaaaaaaaaaaaaaaaaaaaaaaLbkbkbkbkbkbkbkbkaZanaaaaaaaaaaaaaaaIaOaOaOaOaOaOaOaOaMahaaaaaaaaaaaaaaaaaaaaaaaaaaaaaaaa"
"aaaaaaaaaaaaaaaaaaaaaaaaaaaaaaaaaaaaaaaLbkbkbkbkbkbkbkbkaZanaaaaaaaaaaaaaaaaaaaaaaaaaaaaaaaaaaababaaaaaaaaaaaaaaaaaaaaaaaaaaaaaa"
"aaaaaaaaaaaaaaaaaaaaaaaaaaaaaaaaaaaaaaaLbkbkbkbkbkbkbkbkaZanaaaaaaaaaaaaaaaaaaaaaaaaaaaaaaaaaaaaaaaaaaaaaaaaaaaaaaaaaaaaaaaaaaaa"
"aaaaaaaaaaaaaaaaaaaaaaaaaaaaaaaaaaaaaaaLbkbkbkbkbkbkbkbkaZanaaaaaaaaaaaaaaaaaaaaaaaaaaaaaaaaaaaaaaaaaaaaaaaaaaaaaaaaaaaaaaaaaaaa"
"aaaaaaaaaaaaaaaaaaaaaaaaaaaaaaaaaaaaaaaLbkbkbkbkbkbkbkbkaZanaaaaataRaRaRaRaRaRaRaRaRavaaaaaaaaaaaaaaaaaaaaaaaaaaaaaaaaaaaaaaaaaa"
"aaaaaaaaaaaaaaaaaaaaaaaaaaaaaaaaaaaaaaaLbkbkbkbkbkbkbkbkaYahaaaaaubkbkbkbkbkbkbkbkbkaEaaaaaaaaaaaaaaaaaaaaaaaaaaaaaaaaaaaaaaaaaa"
"aaaaaaaaaaaaaaaaaaaaaaaaaaaaaaaaaaaaaaaLbkbkbkbkbkbkbkbkbeaGaBaBaJbkbkbkbkbkbkbkbkbkaDaaaaaaaaaaaaaaaaaaaaaaaaaaaaaaaaaaaaaaaaaa"
"aaaaaaaaaaaaaaaaaaaaaaaaaaaaaaaaaaaaaaaLbkbkbkbkbkbkbkbkbkbkbkbkbkbkbkbkbkbkbkbkbkbkaDaaaaaaaaaaaaaaaaaaaaaaaaaaaaaaaaaaaaaaaaaa"
"aaaaaaaaaaaaaaaaaaaaaaaaaaaaaaaaaaaaaaaLbkbkbkbkbkbkbkbkbkbkbkbkbkbkbkbkbkbkbkbkbkbkaDaaaaaaaaaaaaaaaaaaaaaaaaaaaaaaaaaaaaaaaaaa"
"aaaaaaaaaaaaaaaaaaaaaaaaaaaaaaaaaaaaaaaLbkbkbkbkbkbkbkbkbkbkbkbkbkbkbkbkbkbkbkbkbkbkaDaaaaaaaaaaaaaaaaaaaaaaaaaaaaaaaaaaaaaaaaaa"
"aaaaaaaaaaaaaaaaaaaaaaaaaaaaaaaaaaaaaaaLbkbkbkbkbkbkbkbkbkbkbkbkbkbkbkbkbkbkbkbkbkbkaDaaaaaaaaaaaaaaaaaaaaaaaaaaaaaaaaaaaaaaaaaa"
"aaaaaaaaaaaaaaaaaaaaaaaaaaaaaaaaaaaaaaaLbkbkbkbkbkbkbkbkbkbkbkbkbkbkbkbkbkbkbkbkbkbkaDaaaaaaaaaaaaaaaaaaaaaaaaaaaaaaaaaaaaaaaaaa"
"aaaaaaaaaaaaaaaaaaaaaaaaaaaaaaaaaaaaaaaLbkbkbkbkbkbkbkbkbkbkbkbkbkbkbkbkbkbkbkbkbkbkaDaaaaaaaaaaaaaaaaaaaaaaaaaaaaaaaaaaaaaaaaaa"
"aaaaaaaaaaaaaaaaaaaaaaaaaaaaaaaaaaaaaaaLbkbkbkbkbkbkbkbkbkbkbkbkbkbkbkbkbkbkbkbkbkbkaDaaaaaaaaaaaaaaaaaaaaaaaaaaaaaaaaaaaaaaaaaa"
"aaaaaaaaaaaaaaaaaaaaaaaaaaaaaaaaaaaaaaaLbkbkbkbkbkbkbkbkbjbcbbbabebkbkbkbkbkbkbkbkbkaDaaaaaaaaaaaaaaaaaaaaaaaaaaaaaaaaaaaaaaaaaa"
"aaaaaaaaaaaaaaaaaaaaaaaaaaaaaaaaaaaaaaaLbkbkbkbkbkbkbkbkbaatanamawbkbkbkbkbkbkbkbkbkaDaaaaaaaaaaaaaaaaaaaaaaaaaaaaaaaaaaaaaaaaaa"
"aaaaaaaaaaaaaaaaaaaaaaaaaaaaaaaaaaaaaaaLbkbkbkbkbkbkbkbkaZajaaaaaubkbkbkbkbkbkbkbkbkaFaaaaaaaaaaaaaaaaaaaaaaaaaaaaaaaaaaaaaaaaaa"
"aaaaaaaaaaaaaaaaaaaaaaaaaaaaaaaaaaaaaaaLbkbkbkbkbkbkbkbkaZanaaaaalayaxawawawawawawazasaaaaaaaaaaaaaaaaaaaaaaaaaaaaaaaaaaaaaaaaaa"
"aaaaaaaaaaaaaaaaaaaaaaaaaaaaaaaaaaaaaaaLbkbkbkbkbkbkbkbkaZanaaaaaaaaaaaaaaaaaaaaaaaaaaaaaaaaaaaaaaaaaaaaaaaaaaaaaaaaaaaaaaaaaaaa"
"aaaaaaaaaaaaaaaaaaaaaaaaaaaaaaaaaaaaaaaLbkbkbkbkbkbkbkbkaZanaaaaaaaaaaaaaaaaaaaaaaaaaaaaaaaaaaaaaaaaaaaaaaaaaaaaaaaaaaaaaaaaaaaa"
"aaaaaaaaaaaaaaaaaaaaaaaaaaaaaaaaaaaaaaaLbkbkbkbkbkbkbkbkaZanaaaaaaaaaaaaaaahamamamamamamamamakadaaaaaaaaaaaaaaaaaaaaaaaaaaaaaaaa"
"aaaaaaaaaaaaaaaaaaaaaaaaaaaaaaaaaaaaaaaLbkbkbkbkbkbkbkbkaZanaaaaaaaaaaaaaaaNbabababababababaaWakaaaaaaaaaaaaaaaaaaaaaaaaaaaaaaaa"
"aaaaaaaaaaaaaaaaaaaaaaaaaaaaaaaaaaaaaaaLbkbkbkbkbkbkbkbkaZanaaaaaaaaaaaaaaaRbkbkbkbkbkbkbkbkbaalaaaaaaaaaaaaaaaaaaaaaaaaaaaaaaaa"
"aaaaaaaaaaaaaaaaaaaaaaaaaaaaaaaaaaaaaaaKbkbkbkbkbkbkbkbkaZahaaaaaaaaaaaaaaaPbkbkbkbkbkbkbkbkaYalaaaaaaaaaaaaaaaaaaaaaaaaaaaaaaaa"
"aaaaaaaaaaaaaaaaaaaaaaaaaaaaaaaaagaBaCaUbkbkbkbkbkbkbkbkbeaHaCaCaCaCaCaCaCaVbkbkbkbkbkbkbkbkaYalaaaaaaaaaaaaaaaaaaaaaaaaaaaaaaaa"
"aaaaaaaaaaaaaaaaaaaaaaaaaaaaaaaaapbibkbkbkbkbkbkbkbkbkbkbkbkbkbkbkbkbkbkbkbkbkbkbkbkbkbkbkbkaYalaaaaaaaaaaaaaaaaaaaaaaaaaaaaaaaa"
"aaaaaaaaaaaaaaaaaaaaaaaaaaaaaaaaaobbbkbkbkbkbkbkbkbkbkbkbkbkbkbkbkbkbkbkbkbkbkbkbkbkbkbkbkbkaYalaaaaaaaaaaaaaaaaaaaaaaaaaaaaaaaa"
"aaaaaaaaaaaaaaaaaaaaaaaaaaaaaaaaaobbbkbkbkbkbkbkbkbkbkbkbkbkbkbkbkbkbkbkbkbkbkbkbkbkbkbkbkbkaYalaaaaaaaaaaaaaaaaaaaaaaaaaaaaaaaa"
"aaaaaaaaaaaaaaaaaaaaaaaaaaaaaaaaaobbbkbkbkbkbkbkbkbkbkbkbkbkbkbkbkbkbkbkbkbkbkbkbkbkbkbkbkbkaYalaaaaaaaaaaaaaaaaaaaaaaaaaaaaaaaa"
"aaaaaaaaaaaaaaaaaaaaaaaaaaaaaaaaaobbbkbkbkbkbkbkbkbkbkbkbkbkbkbkbkbkbkbkbkbkbkbkbkbkbkbkbkbkaYalaaaaaaaaaaaaaaaaaaaaaaaaaaaaaaaa"
"aaaaaaaaaaaaaaaaaaaaaaaaaaaaaaaaaobbbkbkbkbkbkbkbkbkbkbkbkbkbkbkbkbkbkbkbkbkbkbkbkbkbkbkbkbkaYalaaaaaaaaaaaaaaaaaaaaaaaaaaaaaaaa"
"aaaaaaaaaaaaaaaaaaaaaaaaaaaaaaaaaobdbkbkbkbkbkbkbkbkbkbkbkbkbkbkbkbkbkbkbkbkbkbkbkbkbkbkbkbkbaalaaaaaaaaaaaaaaaaaaaaaaaaaaaaaaaa"
"aaaaaaaaaaaaaaaaaaaaaaaaaaaaaaaaanaXaZaZaZaZaZaZaZaZaZaZaZaZaZaZaZaZaZaZaZaZaZaZaZaZaZaZaZaZaWajaaaaaaaaaaaaaaaaaaaaaaaaaaaaaaaa"
"aaaaaaaaaaaaaaaaaaaaaaaaaaaaaaaaadakalalalalalalalalalalalalalalalalalalalalalalalalalalalalakacaaaaaaaaaaaaaaaaaaaaaaaaaaaaaaaa"
"aaaaaaaaaaaaaaaaaaaaaaaaaaaaaaaaaaaaaaaaaaaaaaaaaaaaaaaaaaaaaaaaaaaaaaaaaaaaaaaaaaaaaaaaaaaaaaaaaaaaaaaaaaaaaaaaaaaaaaaaaaaaaaaa"
"aaaaaaaaaaaaaaaaaaaaaaaaaaaaaaaaaaaaaaaaaaaaaaaaaaaaaaaaaaaaaaaaaaaaaaaaaaaaaaaaaaaaaaaaaaaaaaaaaaaaaaaaaaaaaaaaaaaaaaaaaaaaaaaa"
"aaaaaaaaaaaaaaaaaaaaaaaaaaaaaaaaaaaaaaaaaaaaaaaaaaaaaaaaaaaaaaaaaaaaaaaaaaaaaaaaaaaaaaaaaaaaaaaaaaaaaaaaaaaaaaaaaaaaaaaaaaaaaaaa"
"aaaaaaaaaaaaaaaaaaaaaaaaaaaaaaaaaaaaaaaaaaaaaaaaaaaaaaaaaaaaaaaaaaaaaaaaaaaaaaaaaaaaaaaaaaaaaaaaaaaaaaaaaaaaaaaaaaaaaaaaaaaaaaaa"
"aaaaaaaaaaaaaaaaaaaaaaaaaaaaaaaaaaaaaaaaaaaaaaaaaaaaaaaaaaaaaaaaaaaaaaaaaaaaaaaaaaaaaaaaaaaaaaaaaaaaaaaaaaaaaaaaaaaaaaaaaaaaaaaa"
"aaaaaaaaaaaaaaaaaaaaaaaaaaaaaaaaaaaaaaaaaaaaaaaaaaaaaaaaaaaaaaaaaaaaaaaaaaaaaaaaaaaaaaaaaaaaaaaaaaaaaaaaaaaaaaaaaaaaaaaaaaaaaaaa"
"aaaaaaaaaaaaaaaaaaaaaaaaaaaaaaaaaaaaaaaaaaaaaaaaaaaaaaaaaaaaaaaaaaaaaaaaaaaaaaaaaaaaaaaaaaaaaaaaaaaaaaaaaaaaaaaaaaaaaaaaaaaaaaaa"
"aaaaaaaaaaaaaaaaaaaaaaaaaaaaaaaaaaaaaaaaaaaaaaaaaaaaaaaaaaaaaaaaaaaaaaaaaaaaaaaaaaaaaaaaaaaaaaaaaaaaaaaaaaaaaaaaaaaaaaaaaaaaaaaa"
"aaaaaaaaaaaaaaaaaaaaaaaaaaaaaaaaaaaaaaaaaaaaaaaaaaaaaaaaaaaaaaaaaaaaaaaaaaaaaaaaaaaaaaaaaaaaaaaaaaaaaaaaaaaaaaaaaaaaaaaaaaaaaaaa"
};
