/* XPM */
static char * xpm[] = {
"64 64 64 2",
"aa c #ffffff"
"ab c #fffffe"
"ac c #fdfdfd"
"ad c #fcfcfc"
"ae c #fafafa"
"af c #f7f7f7"
"ag c #f3f3f3"
"ah c #f1f1f1"
"ai c #efefef"
"aj c #ededed"
"ak c #ebebeb"
"al c #e8e8e8"
"am c #e3e3e2"
"an c #dfdfdf"
"ao c #dbdbdb"
"ap c #d4d4d4"
"aq c #cdcdcd"
"ar c #c6c6c6"
"as c #bfbfbf"
"at c #b8b8b8"
"au c #b3b3b3"
"av c #adadad"
"aw c #a6a6a6"
"ax c #9c9c9c"
"ay c #939393"
"az c #8a8a8a"
"aA c #838383"
"aB c #7a7a7a"
"aC c #747474"
"aD c #70706f"
"aE c #6a6a69"
"aF c #606060"
"aG c #575757"
"aH c #4f4f4f"
"aI c #494949"
"aJ c #434343"
"aK c #3c3c3c"
"aL c #373737"
"aM c #333333"
"aN c #2f2f2f"
"aO c #292928"
"aP c #222222"
"aQ c #1f1f1f"
"aR c #1b1b1b"
"aS c #181818"
"aT c #171717"
"aU c #141414"
"aV c #111111"
"aW c #0f0f0f"
"aX c #0d0d0d"
"aY c #0c0c0c"
"aZ c #0b0b0b"
"ba c #0a0a0a"
"bb c #090909"
"bc c #080808"
"bd c #080807"
"be c #070707"
"bf c #060606"
"bg c #050505"
"bh c #040404"
"bi c #030303"
"bj c #020202"
"bk c #010101"
"bl c #000000"
"aaaaaaaaaaaaaaaaaaaaaaaaaaaaaaaaaaaaaaaaaaaaaaaaaaaaaaaaaaaaaaaaaaaaaaaaaaaaaaaaaaaaaaaaaaaaaaaaaaaaaaaaaaaaaaaaaaaaaaaaaaaaaaaa"
"aaaaaaaaaaaaaaaaaaaaaaaaaaaaaaaaaaaaaaaaaaaaaaaaaaaaaaaaaaaaaaaaaaaaaaaaaaaaaaaaaaaaaaaaaaaaaaaaaaaaaaaaaaaaaaaaaaaaaaaaaaaaaaaa"
"aaaaaaaaaaaaaaaaaaaaaaaaaaaaaaaaaaaaaaaaaaaaaaaaaaaaaaaaaaaaaaaaaaaaaaaaaaaaaaaaaaaaaaaaaaaaaaaaaaaaaaaaaaaaaaaaaaaaaaaaaaaaaaaa"
"aaaaaaaaaaaaaaaaaaaaaaaaaaaaaaaaaaaaaaaaaaaaaaaaaaaaaaaaaaaaaaaaaaaaaaaaaaaaaaaaaaaaaaaaaaaaaaaaaaaaaaaaaaaaaaaaaaaaaaaaaaaaaaaa"
"aaaaaaaaaaaaaaaaaaaaaaaaaaaaaaaaaaaaaaaaaaaaaaaaaaaaaaaaaaaaaaaaaaaaaaaaaaaaaaaaaaaaaaaaaaaaaaaaaaaaaaaaaaaaaaaaaaaaaaaaaaaaaaaa"
"aaaaaaaaaaaaaaaaaaaaaaaaaaaaaaaaaaaaaaaaaaaaaaaaaaaaaaaaaaaaaaaaaaaaaaaaaaaaaaaaaaaaaaaaaaaaaaaaaaaaaaaaaaaaaaaaaaaaaaaaaaaaaaaa"
"aaaaaaaaaaaaaaaaaaaaaaaaaaaaaaaaaaaaaaaaaaaaaaaaaaaaaaaaaaaaaaaaaaaaaaaaaaaaaaaaaaaaaaaaaaaaaaaaaaaaaaaaaaaaaaaaaaaaaaaaaaaaaaaa"
"aaaaaaaaaaaaaaaaaaaaaaaaaaaaaaaaaaaaaaaaaaaaaaaaaaaaaaaaaaaaaaaaaaaaaaaaaaaaaaaaaaaaaaaaaaaaaaaaaaaaaaaaaaaaaaaaaaaaaaaaaaaaaaaa"
"aaaaaaaaaaaaaaaaaaaaaaaaaaaaaaaaaaaaaaaaaaaaaaaaaaaaaaaaaaaaaaaaaaaaaaaaaaaaaaaaaaaaaaaaaaaaaaaaaaaaaaaaaaaaaaaaaaaaaaaaaaaaaaaa"
"aaaaaaaaaaaaaaaaaaaaaaaaaaaaaaaaaaaaaaaaaaaaaaaaaaaaaaaaaaaaaaaaaaaaaaaaaaaaaaaaaaaaaaaaaaaaaaaaaaaaaaaaaaaaaaaaaaaaaaaaaaaaaaaa"
"aaaaaaaaaaaaaaaaaaaaaaaaaaaaaaaaaaaaaaaaaaaaaaaaaaaaaaaaaaaaaaaaaaaaaaaaaaaaaaaaaaaaaaaaaaaaaaaaaaaaaaaaaaaaaaaaaaaaaaaaaaaaaaaa"
"aaaaaaaaaaaaaaaaaaaaaaaaaaaaaaaaaaaaaaaaaaaaaaaaaaaaaaaaaaaaaaaaaaaaaaaaaaaaaaaaaaaaaaaaaaaaaaaaaaaaaaaaaaaaaaaaaaaaaaaaaaaaaaaa"
"aaaaaaajaxaxavatasarararararasasatasahaaaaaaaaaaaaaaaaaaaaaaaaaaaaaoavanaaaaaaaaaaaaaaaaaaaaaaaaaaaganalakajajajakalamaoaiaaaaaa"
"aaaaaaayblbkbhbfbcbbbabbbbbcbebgbhblaBacaaaaaaaaaaaaaaaaaaaaaaaaanaQblaGaaaaaaaaaaaaaaaaaaaaaaaaalaHaWaSaQaPaPaPaQaRaSaYaDaaaaaa"
"aaaaaaaFbjaWbbbabababbbbbbbabeblblblaPahaaaaaaaaaaaaaaaaaaaaaaaaaAblbcaTanaaaaaaaaaaaaaaaaaaaaaaaxblblblbkbfbbbcbebcbbbhaGaaaaaa"
"aaaaaaaqaHaTaXbababababababcaUaJaGaGawacaaaaaaaaaaaaaaaaaaaaaaafaKbhbabkayaaaaaaaaaaaaaaaaaaaaaaamaFaIaMaRaZaWaZaZaZaWaMauaaaaaa"
"aaaaaaaaabaAaVbbbababababbaWawaaaaaaaaaaaaaaaaaaaaaaaaaaaaaaaaaqaWbcbabiaJacaaaaaaaaaaaaaaaaaaaaaaaaaaaeamaIbeaZbaaZaIalaaaaaaaa"
"aaaaaaaaaaalaMbbbababababeaOakaaaaaaaaaaaaaaaaaaaaaaaaaaaaaaaaaBbkbababcaWapaaaaaaaaaaaaaaaaaaaaaaaaaaaaaaazbebabcaPapaaaaaaaaaa"
"aaaaaaaaaaaaaEaYbbbabababeaQamaaaaaaaaaaaaaaaaaaaaaaaaaaaaaaaiaObfbababablaAaaaaaaaaaaaaaaaaaaaaaaaaaaaaaaazbbbabeaDaaaaaaaaaaaa"
"aaaaaaaaaaaaauaTbbbabababbaWaraaaaaaaaaaaaaaaaaaaaaaaaaaaaaaaxbibababababgaOahaaaaaaaaaaaaaaaaaaaaaaaaaaaaaCbebbaUasaaaaaaaaaaaa"
"aaaaaaaaaaaaakaLbbbababababiazaaaaaaaaaaaaaaaaaaaaaaaaaaaaaeaJbibabababababiawaaaaaaaaaaaaaaaaaaaaaaaaaaadaHbfbeaJafaaaaaaaaaaaa"
"aaaaaaaaaaaaaaaDaZbbbabababhaJaeaaaaaaaaaaaaaaaaaaaaaaaaaaarbabbbabababababiaJaeaaaaaaaaaaaaaaaaaaaaaaaaanaObebcazaaaaaaaaaaaaaa"
"aaaaaaaaaaaaaaataSbbbabababcaUapaaaaaaaaaaaaaaaaaaaaaaaaaaaFbkbabcbbbbbababbbcasaaaaaaaaaaaaaaaaaaaaaaaaawaYbcaRaqaaaaaaaaaaaaaa"
"aaaaaaaaaaaaaaajaLbbbababababiazaaaaaaaaaaaaaaaaaaaaaaaaaoaSbebfblaZbbbbbbbabkaGaaaaaaaaaaaaaaaaaaaaaaaaaEbgbfaIaeaaaaaaaaaaaaaa"
"aaaaaaaaaaaaaaaaaCaYbbbabababiaJaeaaaaaaaaaaaaaaaaaaaaaaaAblbbbaaNbfaZbbbbbabcaVapaaaaaaaaaaaaaaaaaaaaalaNbfbeayaaaaaaaaaaaaaaaa"
"aaaaaaaaaaaaaaaaataSbbbabababcaVaqaaaaaaaaaaaaaaaaaaaaahaNbhbjaJanaUbbbbbbbbbbblaCaaaaaaaaaaaaaaaaaaaaavaXbeaRapaaaaaaaaaaaaaaaa"
"aaaaaaaaaaaaaaaaajaLbbbababababkaBaaaaaaaaaaaaaaaaaaaaawbhbbbkaxaaaFbjbabbbbbbbfaQalaaaaaaaaaaaaaaaaaaaEbgbhaIaeaaaaaaaaaaaaaaaa"
"aaaaaaaaaaaaaaaaaaaCaYbbbabababgaMagaaaaaaaaaaaaaaaaadaIbkbfaPakaaasbebabbbbbbbbblayaaaaaaaaaaaaaaaaalaNbfbgazaaaaaaaaaaaaaaaaaa"
"aaaaaaaaaaaaaaaaaaataSbcbabababbbdataaaaaaaaaaaaaaaaaraYbebiaCaaaaaeaLbebbbbbbbbbhaMafaaaaaaaaaaaaaaauaWbfaSapaaaaaaaaaaaaaaaaaa"
"aaaaaaaaaaaaaaaaaaajaLbbbbbbbbbbbkaFaaaaaaaaaaaaaaaaaEblbcaUaqaaaaaaaybfbabbbbbbbbbiavaaaaaaaaaaaaaaaEbgbhaIaeaaaaaaaaaaaaaaaaaa"
"aaaaaaaaaaaaaaaaaaaaaCaYbcbbbbbbbfaQamaaaaaaaaaaaaamaRbfbgaHacaaaaaaalaPbabbbbbbbbbkaIadaaaaaaaaaaalaNbgbgazaaaaaaaaaaaaaaaaaaaa"
"aaaaaaaaaaaaaaaaaaaaataTbcbbbbbbbbbjaxaaaaaaaaaaaaazblbcbbawaaaaaaaaaaaDbcbbbbbbbcbebbaraaaaaaaaaaavaYbeaTaqaaaaaaaaaaaaaaaaaaaa"
"aaaaaaaaaaaaaaaaaaaaajaLbcbbbbbbbbbjaJaeaaaaaaaaagaMbibeaNaiaaaaaaaaaaaraUaZbbbbbcbcblaFaaaaaaaaabaFbhbhaJafaaaaaaaaaaaaaaaaaaaa"
"aaaaaaaaaaaaaaaaaaaaaaaCaZbcbbbbbbbcaXaraaaaaaaaavbhbebfaAaaaaaaaaaaaaaeaIbabcbcbcbcbfaUaoaaaaaaamaPbgbgazaaaaaaaaaaaaaaaaaaaaaa"
"aaaaaaaaaaaaaaaaaaaaaaataTbcbbbbbbbbblaDaaaaaaadaIbkbcaSapaaaaaaaaaaaaaaaxaXbbbcbcbcbcblaBaaaaaaaxbebfaUaqaaaaaaaaaaaaaaaaaaaaaa"
"aaaaaaaaaaaaaaaaaaaaaaaiaLbcbbbbbbbbbgaPalaaaaaraZbebfaGabaaaaaaaaaaaaaaakaNbabebcbcbcbhaPakaaacaHbibhaKafaaaaaaaaaaaaaaaaaaaaaa"
"aaaaaaaaaaaaaaaaaaaaaaaaaCaZbcbbbbbbbcbjaxaaaaaFblbcaYavaaaaaaaaaaaaaaaaaaaCbabcbcbcbcbcblayaaapaTbfbgaAaaaaaaaaaaaaaaaaaaaaaaaa"
"aaaaaaaaaaaaaaaaaaaaaaaaataTbcbbbbbcbcbkaJaaapaVbgbfaMahaaaaaaaaaaaaaaaaaaaqaSbabcbcbcbcbiaNacazbjbfaVaraaaaaaaaaaaaaaaaaaaaaaaa"
"aaaaaaaaaaaaaaaaaaaaaaaaaiaLbcbbbbbcbcbebbasaDblbebfaAaaaaaaaaaaaaaaaaaaaaacaHbabebcbcbcbcbhaFaNbgbhaLagaaaaaaaaaaaaaaaaaaaaaaaa"
"aaaaaaaaaaaaaaaaaaaaaaaaaaaCbabcbbbcbcbcbfaUaYbebeaRapaaaaaaaaaaaaaaaaaaaaaaawaWbbbcbcbcbebeblbgbcbhaBaaaaaaaaaaaaaaaaaaaaaaaaaa"
"aaaaaaaaaaaaaaaaaaaaaaaaaaataTbcbbbcbcbcbcbfbebebfaGabaaaaaaaaaaaaaaaaaaaaaaaiaNaZbebcbcbcbebcbcbfaWasaaaaaaaaaaaaaaaaaaaaaaaaaa"
"aaaaaaaaaaaaaaaaaaaaaaaaaaahaKbcbcbcbcbcbcbcbcbeaXauaaaaaaaaaaaaaaaaaaaaaaaaaaaBaZbcbcbcbcbcbcbcbgaMaiaaaaaaaaaaaaaaaaaaaaaaaaaa"
"aaaaaaaaaaaaaaaaaaaaaaaaaaaaaBaZbcbbbcbcbcbcbcbeaMagaaaaaaaaaaaaaaaaaaaaaaaaaaapaRaZbebcbcbcbcbebgaCaaaaaaaaaaaaaaaaaaaaaaaaaaaa"
"aaaaaaaaaaaaaaaaaaaaaaaaaaaaasaSbcbbbbbcbbbbbbbcazaaaaaaaaaaaaaaaaaaaaaaaaaaaaabaGaZbebcbcbcbcbfaVataaaaaaaaaaaaaaaaaaaaaaaaaaaa"
"aaaaaaaaaaaaaaaaaaaaaaaaaaaaahaKbcbbbbbbbbbbbcaQaoaaaaaaaaaaaaaaaaaaaaaaaaaaaaaaavaWbbbcbcbcbcbgaMajaaaaaaaaaaaaaaaaaaaaaaaaaaaa"
"aaaaaaaaaaaaaaaaaaaaaaaaaaaaaaaBbabcbbbcbcbbbeaFaaaaaaaaaaaaaaaaaaaaaaaaaaaaaaaaahaMaZbebcbcbebfaDaaaaaaaaaaaaaaaaaaaaaaaaaaaaaa"
"aaaaaaaaaaaaaaaaaaaaaaaaaaaaaaasaSbcbbbcbbbbaWauaaaaaaaaaaaaaaaaaaaaaaaaaaaaaaaaaaaAaYbcbcbcbeaWauaaaaaaaaaaaaaaaaaaaaaaaaaaaaaa"
"aaaaaaaaaaaaaaaaaaaaaaaaaaaaaaagaKbcbbbbbabcaLagaaaaaaaaaaaaaaaaaaaaaaaaaaaaaaaaaaaoaQbabcbcbgaOalaaaaaaaaaaaaaaaaaaaaaaaaaaaaaa"
"aaaaaaaaaaaaaaaaaaaaaaaaaaaaaaaaaAaZbbbabbbcazaaaaaaaaaaaaaaaaaaaaaaaaaaaaaaaaaaaaaaaGbbbcbbbiaGabaaaaaaaaaaaaaaaaaaaaaaaaaaaaaa"
"aaaaaaaaaaaaaaaaaaaaaaaaaaaaaaaaaraSbbbabcaRaoaaaaaaaaaaaaaaaaaaaaaaaaaaaaaaaaaaaaaaauaXbbbbbhaxaaaaaaaaaaaaaaaaaaaaaaaaaaaaaaaa"
"aaaaaaaaaaaaaaaaaaaaaaaaaaaaaaaaafaIbkbeaRaxaaaaaaaaaaaaaaaaaaaaaaaaaaaaaaaaaaaaaaaaafaIaXaOaDajaaaaaaaaaaaaaaaaaaaaaaaaaaaaaaaa"
"aaaaaaaaaaaaaaaaaaaaaaaaaaaaaaaaaaamayavanaaaaaaaaaaaaaaaaaaaaaaaaaaaaaaaaaaaaaaaaaaaaahaqakaaaaaaaaaaaaaaaaaaaaaaaaaaaaaaaaaaaa"
"aaaaaaaaaaaaaaaaaaaaaaaaaaaaaaaaaaaaaaaaaaaaaaaaaaaaaaaaaaaaaaaaaaaaaaaaaaaaaaaaaaaaaaaaaaaaaaaaaaaaaaaaaaaaaaaaaaaaaaaaaaaaaaaa"
"aaaaaaaaaaaaaaaaaaaaaaaaaaaaaaaaaaaaaaaaaaaaaaaaaaaaaaaaaaaaaaaaaaaaaaaaaaaaaaaaaaaaaaaaaaaaaaaaaaaaaaaaaaaaaaaaaaaaaaaaaaaaaaaa"
"aaaaaaaaaaaaaaaaaaaaaaaaaaaaaaaaaaaaaaaaaaaaaaaaaaaaaaaaaaaaaaaaaaaaaaaaaaaaaaaaaaaaaaaaaaaaaaaaaaaaaaaaaaaaaaaaaaaaaaaaaaaaaaaa"
"aaaaaaaaaaaaaaaaaaaaaaaaaaaaaaaaaaaaaaaaaaaaaaaaaaaaaaaaaaaaaaaaaaaaaaaaaaaaaaaaaaaaaaaaaaaaaaaaaaaaaaaaaaaaaaaaaaaaaaaaaaaaaaaa"
"aaaaaaaaaaaaaaaaaaaaaaaaaaaaaaaaaaaaaaaaaaaaaaaaaaaaaaaaaaaaaaaaaaaaaaaaaaaaaaaaaaaaaaaaaaaaaaaaaaaaaaaaaaaaaaaaaaaaaaaaaaaaaaaa"
"aaaaaaaaaaaaaaaaaaaaaaaaaaaaaaaaaaaaaaaaaaaaaaaaaaaaaaaaaaaaaaaaaaaaaaaaaaaaaaaaaaaaaaaaaaaaaaaaaaaaaaaaaaaaaaaaaaaaaaaaaaaaaaaa"
"aaaaaaaaaaaaaaaaaaaaaaaaaaaaaaaaaaaaaaaaaaaaaaaaaaaaaaaaaaaaaaaaaaaaaaaaaaaaaaaaaaaaaaaaaaaaaaaaaaaaaaaaaaaaaaaaaaaaaaaaaaaaaaaa"
"aaaaaaaaaaaaaaaaaaaaaaaaaaaaaaaaaaaaaaaaaaaaaaaaaaaaaaaaaaaaaaaaaaaaaaaaaaaaaaaaaaaaaaaaaaaaaaaaaaaaaaaaaaaaaaaaaaaaaaaaaaaaaaaa"
"aaaaaaaaaaaaaaaaaaaaaaaaaaaaaaaaaaaaaaaaaaaaaaaaaaaaaaaaaaaaaaaaaaaaaaaaaaaaaaaaaaaaaaaaaaaaaaaaaaaaaaaaaaaaaaaaaaaaaaaaaaaaaaaa"
"aaaaaaaaaaaaaaaaaaaaaaaaaaaaaaaaaaaaaaaaaaaaaaaaaaaaaaaaaaaaaaaaaaaaaaaaaaaaaaaaaaaaaaaaaaaaaaaaaaaaaaaaaaaaaaaaaaaaaaaaaaaaaaaa"
"aaaaaaaaaaaaaaaaaaaaaaaaaaaaaaaaaaaaaaaaaaaaaaaaaaaaaaaaaaaaaaaaaaaaaaaaaaaaaaaaaaaaaaaaaaaaaaaaaaaaaaaaaaaaaaaaaaaaaaaaaaaaaaaa"
"aaaaaaaaaaaaaaaaaaaaaaaaaaaaaaaaaaaaaaaaaaaaaaaaaaaaaaaaaaaaaaaaaaaaaaaaaaaaaaaaaaaaaaaaaaaaaaaaaaaaaaaaaaaaaaaaaaaaaaaaaaaaaaaa"
};
