/* XPM */
static char *_7bd37b421914de4e34e8a8c776fa6d7aMrGjyrkz5UjPi2r[] = {
/* columns rows colors chars-per-pixel */
"64 64 105 2 ",
"   c #433E3F",
".  c #443F40",
"X  c #464040",
"o  c #4A4444",
"O  c #4D4749",
"+  c #4F4B4B",
"@  c #554B43",
"#  c #5A4F44",
"$  c #544C4C",
"%  c #5C5146",
"&  c #55504C",
"*  c #5D544D",
"=  c #5D5350",
"-  c #625547",
";  c #6F5E45",
":  c #61574C",
">  c #63594E",
",  c #685B4F",
"<  c #715F45",
"1  c #645950",
"2  c #6B5E52",
"3  c #746146",
"4  c #786446",
"5  c #77664C",
"6  c #79674C",
"7  c #7C694D",
"8  c #6F6152",
"9  c #706253",
"0  c #7E6C51",
"q  c #846E4D",
"w  c #86704C",
"e  c #8D754B",
"r  c #937A4F",
"t  c #997F4F",
"y  c #836E51",
"u  c #867255",
"i  c #8E7854",
"p  c #8C7758",
"a  c #8E7858",
"s  c #977E54",
"d  c #987E53",
"f  c #978056",
"g  c #9C8255",
"h  c #9F8459",
"j  c #A6864C",
"k  c #AB8A4E",
"l  c #A18656",
"z  c #A58854",
"x  c #AC8B51",
"c  c #A1865B",
"v  c #A68A5C",
"b  c #A98D5B",
"n  c #AE915D",
"m  c #B49252",
"M  c #B0925D",
"N  c #BE9C5D",
"B  c #BF9D61",
"V  c #C49C51",
"C  c #C89F52",
"Z  c #C39F5F",
"A  c #CBA152",
"S  c #C4A05F",
"D  c #CEA65A",
"F  c #D1A552",
"G  c #D6A953",
"H  c #D9AC54",
"J  c #D5AC5E",
"K  c #DAAF5D",
"L  c #DFB15A",
"P  c #E3B55C",
"I  c #E6B85F",
"U  c #E8B95F",
"Y  c #C09F62",
"T  c #C4A263",
"R  c #C9A563",
"E  c #D3AC63",
"W  c #D9AF61",
"Q  c #DDB465",
"!  c #E1B665",
"~  c #E5BA67",
"^  c #EBBD62",
"/  c #EEBF64",
"(  c #E1B768",
")  c #E6BA68",
"_  c #E7BC69",
"`  c #E8BD69",
"'  c #EBBF6A",
"]  c #EFC065",
"[  c #EDC16A",
"{  c #F0C065",
"}  c #F1C36A",
"|  c #F3C46B",
" . c #F6C66A",
".. c #F1C46C",
"X. c #F8C76A",
"o. c #F8C86B",
"O. c #F9C86B",
"+. c #FACA6C",
"@. c #FCCB6D",
"#. c #FBCC6E",
"$. c #FCCC6E",
"%. c #F3C671",
"&. c #FBCB70",
"*. c #FACC72",
"=. c #FACC74",
/* pixels */
"X X X X X X X X X X X X X X X X X X X X X X X X X X X X X X X X X X X X X X X X X X X X X X X X X X X X X X X X X X X X X X X X ",
"X X X X X X X X X X X X X X X X X X X X X X X X X X X X X X X X X X X X X X X X X X X X X X X X X X X X X X X X X X X X X X X X ",
"X X X X X X X X X X X X X X X X X X X X X X X X X X X X X X X X X X X X X X X X X X X X X X X X X X X X X X X X X X X X X X X X ",
"X X X X X X X X X X X X X X X X X X X X X X X X X X X X X X X X X X X X X X X X X X X X X X X X X X X X X X X X X X X X X X X X ",
"X X X X X X X X X X X X X X X X X X X X X X X X X X X X X X X o o o X X X X X X X X X X X X X X X X X X X X X X X X X X X X X X ",
"+ o o o X X X X X X X X X X X X X X X X X X X X X X o o o + + + + + + + o o o X X X X X X X X X X X X X X X X X X X X X o o o + ",
"+ + + + + o X X X X X X X X X X X X X X X X X X o + + + + + + + + + + + + + + + o X X X X X X X X X X X X X X X X X o + + + + + ",
"+ + + + + + O X X X X X X X X X X X X X X X X O + + + + + + + + + + + + + + + + + O X X X X X X X X X X X X X X X O + + + + + + ",
"+ + + + + + + + o X X X X X X X X X X X o + + + + + + + + + + + + + + + + + + + + + + o X X X X X X X X X X X o + + + + + + + + ",
"+ + + + + + + + + + o o o X X X X o o o + + + + + + + + + + + + + + + + + + + + + + + + o o o X X X X o o o + + + + + + + + + + ",
"+ + + + + + + + + + + + + o o o o + + + + + + + + + + + + + + + + + + + + + + + + + + + + + + o o o o + + + + + + + + + + + + + ",
"+ + + + + + + + + + + + + + + + + + + + + + + + + + + + + + + + + + + + + + + + + + + + + + + + + + + + + + + + + + + + + + + + ",
"+ + + + + + + + + + + + + + + + + + + + + + + + + + + + + + + + + + + + + + + + + + + + + + + + + + + + + + + + + + + + + + + + ",
"+ + + + + + + + + + + + + + + + + + + + + + + + + + + + + + + + + + + + + + + + + + + + + + + + + + + + + + + + + + + + + + + + ",
"o o o + + + + + + + + + + + + + + + + + + + + + + + + + + + + o o o + + + + + + + + + + + + + + + + + + + + + + + + + + + + + o ",
"X X X X o + + + + + + + + + + + + + + + + + + + + + o o o X X X X X X X o o o + + + + + + + + + + + + + + + + + + + + + o o o X ",
"X X X X X o o + + + + + + + + + + + + + + + + + o X X X X X X X X X X X X X X X o + + + + + + + + + + + + + + + + + o X X X X X ",
"X X X X X X X X O + + + + + + + + + + + + + + O X X X X X X X X X X X X X X X X X O + + + + + + + + + + + + + + + O X X X X X X ",
"X X X X X X X X X X o + + + + + + + + + + o X X X X X X X X X X X X X X X X X X X X X o + + + + + + + + + + + o X X X X X X X X ",
"X X X X X X X X X X X o o o + + + + o o o X X X X X X X X X X X X X X X X X X X X X X X o o o + + + + o o o X X X X X X X X X X ",
"X X X X X X X X X X X X X X o o o o X X X X X X X X X X X X X X X X X X X X X X X X X X X X X o o o o X X X X X X X X X X X X X ",
"X X X X X X X X X X X X X X X X X X X X X X X X X X X X X X X X X X X X X X X X X X X X X X X X X X X X X X X X X X X X X X X X ",
"X X X X X X X X X X X X X X X X X X X X X X X X X X X X X X X X X X X X X X X X X X X X X X X X X X X X X X X X X X X X X X X X ",
"X X X X X X X X X X X X X X X X X X X X X X X X X X X X X X X X X X X X X X X X X X X X X X X X X X X X X X X X X X X X X X X X ",
"X X X X X X X X X X X X X X X X X X X X X X X X X X X X X X X X X X X X X X X X X X X X X X X X X X X X X X X X X X X X X X X X ",
"X X X X X X X X X X X X X X X X X X X X X X X X X X X X X X X o o o X X X X X X X X X X X X X X X X X X X X X X X X X X X X X X ",
"+ o o o X X X X X X X X X X X X X X X X X X X X X X o o o + + + + + + + o o o X X X X X X X X X X X X X X X X X X X X X o o o + ",
"+ + + + + o X X X X X X X X X X X X X X X X X X o + + + + + + + + + + + + + + + o X X X X X X X X X X X X X X X X X o + + + + + ",
"+ + + + + + O X X X X X X X X X X X X X X X X O + + + + + + + + + + + + + + + + + O X X X X X X X X X X X X X X X O + + + + + + ",
"+ + + + + + + + o X X X X X X X X X X X o + + + + + + + + + + + + + + + + + + + + + + o X X X X X X X X X X X o + + + + + + + + ",
"+ + + + + + + + + + o o o X X X X o o o + + + + + + + + + + + + 1 * $ $ * + + + + + + + o o o X X X X o o o + + + + + + + + + + ",
"+ + + + + + + + + + + + + o o o o + + + + + + + + + + + 9 * o O O o O O + O o O = + + + + + + o o o o + + + + + + + + + + + + + ",
"+ + + + + + + + + + + + + + + + + + + + + + + + + a * O O O X X o X X o o X X o O + O * u + + + + + + + + + + + + + + + + + + + ",
"+ + + + + + + + + + + + + + + + + + + + + + + + p $ o X                 X X X X X o X o O * u + + + + + + + + + + + + + + + + + ",
"+ + + + + + + + + + + + + + + + + + + + + + + p O o X   o - d l l l 7 #     X X X X X o o o $ 1 + + + + + + + + + + + + + + + + ",
"+ + + + + + + + + + + + + + + + + + + + + + + o X   o 7 S + + $ $ $ } Q l #   X X X X X X X o + * a + + + + + + + + + + + + + + ",
"+ + + + + + + + + + + + + + + + + + + + + + :     6 S + + + + o o o + + + N @   X X X X X o X o $ $ p + + + + + + + + + + + + + ",
"+ + + + + + + + + + + + + + + + + + + + + b   X q + o o o X X X X X X X + + N #   X X X X X X o o $ $ a % + + + + + + + + + + + ",
"X o o o + + + + + + + + + + + + + + + + + g   % o X X X i i , a X X X X o o o s   X X X X X X X o O $ * Y * + + + + + + + + O o ",
"X X X X X o + + + + + + + + + + + + + + ! 5   g X X X X M c s O v X X X X X Z o   X X X X X X X X o o $ 1 T + + + + + + o o X X ",
"X X X X X X O + + + + + + + + + + + + + K #   u X X X X X v E 0 2 X X X X X X + 7   X X X X X X X X X + $ 1 T + + + o X X X X X ",
"X X X X X X X X o + + + + + + + + + + + o s   % X X X X X X X l * X X X X X X X b   X X X X X X X X o O $ $ 2 W + + X X X X X X ",
"X X X X X X X X X X o o o + + + + o o o X S o o v X X X X X X X # X X X X X X X X #   X X X X X X X O o O + $ y m + X X X X X X ",
"X X X X X X X X X X X X X o o o o X X X X | w X * T X X X X X X % X X X X X X X X #   X X X X X X X o O o O $ $ * O X X X X X X ",
"X X X X X X X X X X X X X X X X X X X X X X Q %     X X X X X X N X X X X X X X X #   X X X X X X o X X O o $ $ $ $ o X X X X X ",
"X X X X X X X X X X X X X X X X X X X X X X X N %           % N X X X X X X X @ Z o   X X X X X X O X X o O o $ $ $ $ o X X X X ",
"X X X X X X X X X X X X X X X X X X X X X X X X J l h h d z ! X X X X X X X X + s   X X X X X X   O o X X o X $ $ $ $ O X X X X ",
"X X X X X X X X X X X X X X X X X X X X X X X X X X X X X X X X X X X X X X X X X   X X X X X X X X X o o X X + $ $ $ $ o X X X ",
"X X X X X X X X X X X X X X X X X X X X X X X X X X X X X X X X X X X X X X X X   X X X X X X X X X X X O X o + $ $ $ $ $ o X X ",
"X X X X X X X X X X X X X X X X X X X X X X X X X X X X X X X X X X X X X X X X   X X X X X X X X X X X o X O O $ $ $ $ $ $ o X ",
"X X X X X X X X X X X X X X X X X X X X X X X X X X X X X X X o o o X X X X X X   X X X X X X X X o X X X X o O $ $ $ $ $ $ $ X ",
"+ o o o X X X X X X X X X X X X X X X X X X X X X X o o o + + + + + + + + + + X X X X X X X X X X O o X O o o O $ $ $ $ $ $ $ o ",
"+ + + + + o X X X X X X X X X X X X X X X X X X o + + + + + + + + + + + + + + X X X X X X X X X X o X X o o X o O $ $ $ $ $ $ + ",
"+ + + + + + O X X X X X X X X X X X X X X X X O + + + + + + + + + + + + +   X X X X X X X X X X X X X X o O X X O $ $ $ $ $ $ $ ",
"+ + + + + + + + + + o o o X X X X o o o + + + + + + + + + + + + + + + + + X X X X X X X X X X X X X X X o O o o o $ $ $ $ $ $ $ ",
"+ + + + + + + + + + + + + o o o o + + + + + + + + + + + + + + + < @ X X X X X X X X X X X X X X o o     X O o o o $ $ $ $ $ $ $ ",
"+ + + + + + + + + + + + + + + + + + + + + + + + + O O # % @ @ o X X X X X X X X X X X X X X X X o o X X X O o X O $ $ $ $ $ $ + ",
"+ + + + + + + + + + + + + + + + + + o o o o o o X X X X X X X X X X X X X X X X X X X X X X X X X X X o X X X X O $ $ $ + $ $ + ",
"+ + + + + + + + + + + + + + + + o X X X X X X X X X X X X X X X X X X X X X X X X X X X X X X X X X X o o X X X o $ $ $ $ $ + + ",
"+ + + + + + + + + + + + + + o X X X X X X X X X X X X X X X X X X X X X X X X X X X X X X X X X X X X X o X X X o $ $ $ $ + + + ",
"+ + + + + + + + + + + + + + O X X X X X X X X X X X X X X X X X X X X X X X X X X X X X X X X X X X X X X X X X o $ $ $ $ + + + ",
"o + + + + + + + + + + + + + + O X X X X X X X X X X X X X X X X X X X X X X X X X X X X X X X X X X X X X X X X o $ $ $ + + + o ",
"X X o o + + + + + + + + + O o o X X X X X X X X X X X X X X X X X X X X X X X X X X X X X X X X X X X X X X X X + + + O o o X X ",
"X X X X X X X o o o o X X X X X X X X X X X X X X X X X X X X X X X X X X X X X X X X X X X X X X X X X X X o o o o X X X X X X "
};
