/* XPM */
static char *_7bd37b421914de4e34e8a8c776fa6d7aMrGjyrkz5UjPi2r[] = {
/* columns rows colors chars-per-pixel */
"64 64 105 2 ",
"   c #433E3F",
".  c #443F40",
"X  c #464040",
"o  c #4A4444",
"O  c #4D4749",
"+  c #4F4B4B",
"@  c #554B43",
"#  c #5A4F44",
"$  c #544C4C",
"%  c #5C5146",
"&  c #55504C",
"*  c #5D544D",
"=  c #5D5350",
"-  c #625547",
";  c #6F5E45",
":  c #61574C",
">  c #63594E",
",  c #685B4F",
"<  c #715F45",
"1  c #645950",
"2  c #6B5E52",
"3  c #746146",
"4  c #786446",
"5  c #77664C",
"6  c #79674C",
"7  c #7C694D",
"8  c #6F6152",
"9  c #706253",
"0  c #7E6C51",
"q  c #846E4D",
"w  c #86704C",
"e  c #8D754B",
"r  c #937A4F",
"t  c #997F4F",
"y  c #836E51",
"u  c #867255",
"i  c #8E7854",
"p  c #8C7758",
"a  c #8E7858",
"s  c #977E54",
"d  c #987E53",
"f  c #978056",
"g  c #9C8255",
"h  c #9F8459",
"j  c #A6864C",
"k  c #AB8A4E",
"l  c #A18656",
"z  c #A58854",
"x  c #AC8B51",
"c  c #A1865B",
"v  c #A68A5C",
"b  c #A98D5B",
"n  c #AE915D",
"m  c #B49252",
"M  c #B0925D",
"N  c #BE9C5D",
"B  c #BF9D61",
"V  c #C49C51",
"C  c #C89F52",
"Z  c #C39F5F",
"A  c #CBA152",
"S  c #C4A05F",
"D  c #CEA65A",
"F  c #D1A552",
"G  c #D6A953",
"H  c #D9AC54",
"J  c #D5AC5E",
"K  c #DAAF5D",
"L  c #DFB15A",
"P  c #E3B55C",
"I  c #E6B85F",
"U  c #E8B95F",
"Y  c #C09F62",
"T  c #C4A263",
"R  c #C9A563",
"E  c #D3AC63",
"W  c #D9AF61",
"Q  c #DDB465",
"!  c #E1B665",
"~  c #E5BA67",
"^  c #EBBD62",
"/  c #EEBF64",
"(  c #E1B768",
")  c #E6BA68",
"_  c #E7BC69",
"`  c #E8BD69",
"'  c #EBBF6A",
"]  c #EFC065",
"[  c #EDC16A",
"{  c #F0C065",
"}  c #F1C36A",
"|  c #F3C46B",
" . c #F6C66A",
".. c #F1C46C",
"X. c #F8C76A",
"o. c #F8C86B",
"O. c #F9C86B",
"+. c #FACA6C",
"@. c #FCCB6D",
"#. c #FBCC6E",
"$. c #FCCC6E",
"%. c #F3C671",
"&. c #FBCB70",
"*. c #FACC72",
"=. c #FACC74",
/* pixels */
"X X X X X X X X X X X X X X X X X X X X X X X X X X X X X X X X X X X X X X X X X X X X X X X X X X X X X X X X X X X X X X X X ",
"X X X X X X X X X X X X X X X X X X X X X X X X X X X X X X X X X X X X X X X X X X X X X X X X X X X X X X X X X X X X X X X X ",
"X X X X X X X X X X X X X X X X X X X X X X X X X X X X X X X X X X X X X X X X X X X X X X X X X X X X X X X X X X X X X X X X ",
"X X X X X X X X X X X X X X X X X X X X X X X X X X X X X X X X X X X X X X X X X X X X X X X X X X X X X X X X X X X X X X X X ",
"X X X X X X X X X X X X X X X X X X X X X X X X X X X X X X X X X X X . . . . . X X X X X X X X X X X X X X X X X X X X X X X X ",
"+ o o o X X X X X X X X X X X X X X X X X X X X X X o o o + O + * : : * % % # # .   . . X X X X X X X X X X X X X X X X o o o + ",
"+ + + + + o X X X X X X X X X X X X X X X X X X o O + * > u v b ! _ ) ) ) ) ~ Q b l 7 # .   X X X X X X X X X X X X o + + + + + ",
"+ + + + + + O X X X X X X X X X X X X X X X X o : i z E ~ ..$.@.&.*.&.+.*.+.+.+.$.$.} Q b 7 o   X X X X X X X X X O + + + + + + ",
"+ + + + + + + + o X X X X X X X X X X X o $ 5 d D { O.+.&.*.&.+.&.+.&.+.&.&.&.+.+.+.&.+.$.| S 6 o   X X X X X o + + + + + + + + ",
"+ + + + + + + + + + o o o X X X X o o $ 5 x K { O.+.+.+.&.+.+.=.&.+.&.+.&.&.+.+.+.+.&.&.+.+.+.| S 6 X o o o + + + + + + + + + + ",
"+ + + + + + + + + + + + + + + + + + : z G ^  .+.+.+.+.+.&.+.&.&.&.+.&.+.&.&.+.+.+.+.+.+.+.+.+.+.$.` c * + + + + + + + + + + + + ",
"+ + + + + + + + + + + + + + + + + 7 V H / +.+.+.+.+.+.+.+.&.&.+.&.&.&.+.+.+.+.+.+.+.+.+.+.+.+.+.+.+.+.T * + + + + + + + + + + + ",
"+ + + + + + + + + + + + + + + * r A H / +.+.+.+.+.+.+.+.+.+.+.+.+.+.+.+.&.&.+.+.&.+.+.+.+.+.+.+.+.+.+.*.T * + + + + + + + + + + ",
"+ + + + + + + + + + + + + + * x H H I +.+.+.+.+.+.+.+.+.+.+.+.+.+.+.+.+.&.&.&.+.&.+.+.+.+.+.+.+.+.+.+.&.+.Y * + + + + + + + + + ",
"o o o + + + + + + + + + + * x G G I ^  .+.+.+.+.+.+.+.+.+.+.+.+.+.+.+.+.&.+.&.+.=.=.+.+.+.+.+.+.+.+.+.+.&.*.T * + + + + + o o o ",
"X X X X o + + + + + + + + r H H ^ ^ ^  .+.+.+.+.+.+.+.+.+.+.+.+.+.+.+.+.&.&.&.+.+.*.&.&.+.+.+.&.+.+.+.+.+.+.+.B & + + o X X X X ",
"X X X X X o o + + + + + 7 A G P O. . .+.+.+.+.+.+.+.+.+.+.+.+.+.+.+.+.+.&.&.+.+.+.+.&.&.+.+.+.&.+.+.+.+.+.+.+.| p o o X X X X X ",
"X X X X X X X X o + + 5 A G H  .+.+.+.+.+.+.+.+.+.+.+.+.+.+.+.+.+.+.+.+.+.+.+.+.+.&.&.&.&.+.&.+.+.+.+.&.&.+.+.+.! % . X X X X X ",
"X X X X X X X X X X o k H G I /  .+.+.+.+.+.+.+.+.+.+.+.+.+.+.+.+.+.+.+.+.+.+.+.+.&.+.+.&.+.&.+.+.+.+.&.&.+.+.+.+.h . X X X X X ",
"X X X X X X X X X X 4 F G H ^ U { +.+.+.+.+.+.+.+.+.+.+.+.+.+.+.+.+.+.+.+.+.+.+.+.+.=.=.+.+.&.+.+.+.+.&.&.+.+.+.+.! % . X X X X ",
"X X X X X X X X . # V G G ^ +. .+.+.+.+.+.+.+.+.+.+.+.+.+.+.+.+.+.+.+.+.+.+.+.+.+.+.+.+.+.+.&.&.+.+.+.&.+.+.+.+.+.+.l . X X X X ",
"X X X X X X X X . w G G H  .+.+.+.+.+.+.+.+.+.+.+.+.+.+.+.+.+.+.+.+.+.+.+.+.+.+.+.+.+.+.&.&.&.&.+.+.+.&.+.+.&.&.+.+.Q # . X X X ",
"X X X X X X X X o k H G P  . .+.+.+.+.+.+.+.+.+.+.+.+.+.+.+.+.+.+.+.+.+.+.+.+.+.+.+.+.&.&.+.&.&.&.&.&.+.+.+.&.&.&.+.} 7   X X X ",
"X X X X X X X . 3 F G G L ^ ^  .+.+.+.+.+.+.+.+.+.+.+.+.+.+.+.+.+.+.+.+.+.+.+.+.+.+.+.&.+.+.+.&.+.+.+.+.+.&.&.+.&.+.$.l   X X X ",
"X X X X X X X . e H G G H  .^  .+.+.+.+.+.+.+.+.+.+.+.+.+.+.+.+.+.+.+.+.+.+.+.+.+.+.+.&.+.+.+.&.+.+.+.+.=.=.=.=.+.+.@.v . X X X ",
"X X X X X X X o k H G H ^ ^ ^  .+.+.+.+.+.+.+.+.+.+.+.+.+.+.+.+.+.+.+.+.+.+.+.+.+.+.+.&.+.+.+.&.+.+.+.&.+.+.&.+.+.+.+.Q # . X X ",
"o X X X X X . @ V G G H {  . .+.+.+.+.+.+.+.+.+.+.+.+.+.+.+.+.+.+.+.+.+.+.+.+.+.+.+.+.&.+.+.+.&.+.+.+.&.+.+.&.+.+.+.+.~ % X X o ",
"+ + + + o o X % C G G H I  .+.+.+.+.+.+.+.+.+.+.+.+.+.+.+.+.+.+.+.+.+.+.+.+.+.+.+.+.+.&.+.+.+.&.+.+.+.+.=.=.+.+.+.+.+.) * + + + ",
"+ + + + + + O e G G G H { ^ +.+.+.+.] ^  .+.+.+.+.+.+.+.+.+.+.+.+.+.@.@.+.+.+.+.+.+.+.&.+.+.+.&.+.+.+.+.+.+.+.+.&.&.*._ > + + + ",
"+ + + + + + + r H G G H { ^ +.+.+.] ]  .^  .+.+.+.+.+.+.+.+.+.` ` R v v R ` +.@.+.+.+.&.+.+.+.&.+.+.+.+.+.+.+.+.&.+.*._ > + + + ",
"+ + + + + + + r H G G H I ^ ^  .+.^  .+.^  .+.+.+.+.+.+.` R c 8 1 * $ $ * 8 c v R ` +.+.&.&.&.+.+.+.+.+.+.+.+.+.+.&.*._ > + + + ",
"+ + + + + + + r H G G H / ^ ^ { +.{ ]  .^  .+.+.+.| R c 9 * o O O o O O + O o O = 8 h R ..#.+.+.+.+.+.+.+.+.+.+.+.+.+.Q * + + + ",
"+ + + + + + + r H G G G I ^  .^ +.+.{ ^  .+.+.+.` a * O O O X X o X X o o X X o O + O * u R | +.+.+.+.+.+.+.+.+.+.+.+.b + + + + ",
"+ + + + + + + r H G G G U ^ I  .+.+.+.+.+.+.+.` p $ o X             . . X X X X X o X o O * u R +.+.+.+.+.+.+.+.+.+.$.v + + + + ",
"+ + + + + + + e G G G G P  . .+.+.+.+.+.+.+.` p O o X   o - d l l l 7 # . . X X X X X o o o $ 1 Y | +.+.+.&.&.&.+.+.O.f + + + + ",
"+ + + + + + + > A G G G H  .+.+.+. . .+.+.+.v o X   o 7 S ` +.$.$.$.} Q l # . X X X X X X X o + * a ` +.&.&.+.&.&.+.~ , + + + + ",
"+ + + + + + + * C G G G G ^ +.+.{ ^ ^ ^ O.( : . . 6 S  .$.$.+.+.+.+.+.+.+.N @ . X X X X X o X o $ $ p ` *.+.+.+.&.+.K * + + + + ",
"+ + + + + + + $ x H G G G H  . .^  .+./ { b . X q ` [ b c c R | +.+.+.+.+.+.N # . X X X X X X o o $ $ a %.+.+.+.&. .m $ + + + + ",
"o O + + + + + + r H G G G G ^ ^  .+.+.+.^ g   % (  .u 6 i i , a ` +.+.+.+.+.+.s   X X X X X X X o O $ * Y *.&.&.+.^ r + + + O o ",
"X X o o + + + + 6 F G G G G H I  .+.+.+.! 5 . g $.N q N M c s O v +.+.+.+.+.@.Z o X X X X X X X X o o $ 1 T +.+. .G 6 + o o X X ",
"X X X X X o + + $ x H G G G G H  .+.+.+.K # . u  .N l E E v E 0 2 ` +.+.+.+.+.| 7   X X X X X X X X X + $ 1 T X.I k o X X X X X ",
"X X X X X X X X o w G G G G G H ^ +.+. .^ s   % ( | g n b g  .l * _ +.+.+.+.+.$.b . X X X X X X X X o O $ $ 2 W H q . X X X X X ",
"X X X X X X X X . # V H G G G G H ^  .^  .S o o v @.} ) ) } $.s # ) +.+.+.+.+.+.Q # . X X X X X X X O o O + $ y m # . X X X X X ",
"X X X X X X X X X X 4 F G G G G G G P  .+.| w X * T @.$.$. .B @ % ` +.+.+.+.+.+.~ # . X X X X X X X o O o O $ $ * O X X X X X X ",
"X X X X X X X X X X o k H G G G G G H / +.X.Q % . % h v v u @ @ N +.+.+.+.+.+.+.) # . X X X X X X o X X O o $ $ $ $ o X X X X X ",
"X X X X X X X X X X . ; A G G G G G G H / ^ ^ N %   . . . . % N +.+.+.+.+.+.+.@.Z o . X X X X X X O X X o O o $ $ $ $ o X X X X ",
"X X X X X X X X X X X . 3 A G G G G G G H I ] +.J l h h d z ! +.+.+.+.+.+.+.+.+.s   X X X X X X   O o X X o X $ $ $ $ O X X X X ",
"X X X X X X X X X X X X . e H G G G G G G G P ] ^ O.$.$.^  .+. . .+.+.+.+.+.+.` - . X X X X X X X X X o o X X + $ $ $ $ o X X X ",
"X X X X X X X X X X X X . @ j G G G G G G G G G H ^ O. .^  .{ ^ ^  .+.+.+.+.@.S o X X X X X X X X X X X O X o + $ $ $ $ $ o X X ",
"X X X X X X X X X X X X X . @ j H G G G G G G G G G P P {  .^ +. .^ +.{ ^ { } 6   X X X X X X X X X X X o X O O $ $ $ $ $ $ o X ",
"X X X X X X X X X X X X X X . @ e A H G G G G G G G G G H L P ^ ^ ^ ] ^ { ^ J # . X X X X X X X X o X X X X o O $ $ $ $ $ $ $ X ",
"X X X X X X X X X X X X X X X . . 3 V G G G G G G G G G G G G G H H H H H A 4 X X X X X X X X X X O o X O o o O $ $ $ $ $ $ $ o ",
"+ o o X X X X X X X X X X X X X X X # j F H G G G G G G G G G G G G G G k ; . X X X X X X X X X X o X X o o X o O $ $ $ $ $ $ + ",
"+ + + + + o X X X X X X X X X X X X . o 3 k F H G G G G G G G G G G H j @ . X X X X X X X X X X X X X X o O X X O $ $ $ $ $ $ $ ",
"+ + + + + + + + o X X X X X X X X X o o o $ 6 t V G H G G G G H F V e @ . X X X X X X X X X X X X X X X o O o o o $ $ $ $ $ $ $ ",
"+ + + + + + + + + + o o o o o + + + + + + + + + > e t V V V V k < @ X . X X X X X X X X X X X X o o     X O o o o $ $ $ $ $ $ $ ",
"+ + + + + + + + + + + + + + + + + + + + + + + + + O O # % @ @ o . . X X X X X X X X X X X X X X o o X X X O o X O $ $ $ $ $ $ + ",
"+ + + + + + + + + + + + + + + + + + o o o o o o X X X . . . . X X X X X X X X X X X X X X X X X X X X o X X X X O $ $ $ + $ $ + ",
"+ + + + + + + + + + + + + + + + o X X X X X X X X X X X X X X X X X X X X X X X X X X X X X X X X X X o o X X X o $ $ $ $ $ + + ",
"+ + + + + + + + + + + + + + o X X X X X X X X X X X X X X X X X X X X X X X X X X X X X X X X X X X X X o X X X o $ $ $ $ + + + ",
"+ + + + + + + + + + + + + + O X X X X X X X X X X X X X X X X X X X X X X X X X X X X X X X X X X X X X X X X X o $ $ $ $ + + + ",
"o + + + + + + + + + + + + + + O X X X X X X X X X X X X X X X X X X X X X X X X X X X X X X X X X X X X X X X X o $ $ $ + + + o ",
"X X o o + + + + + + + + + O o o X X X X X X X X X X X X X X X X X X X X X X X X X X X X X X X X X X X X X X X X + + + O o o X X ",
"X X X X X X X o o o o X X X X X X X X X X X X X X X X X X X X X X X X X X X X X X X X X X X X X X X X X X X o o o o X X X X X X "
};
