/* XPM */
static char *roc_converted[] = {
/* columns rows colors chars-per-pixel */
"64 64 70 1 ",
"  c #1D1C1C",
". c #201E1E",
"X c #262323",
"o c #2A2624",
"O c #2D2926",
"+ c #2E2B29",
"@ c #332F2C",
"# c #35312E",
"$ c #363231",
"% c #3A3633",
"& c #3D3936",
"* c #3E3B38",
"= c #413B36",
"- c #423D3A",
"; c #4E4135",
": c #46403D",
"> c #49423C",
", c #534436",
"< c #5E4A37",
"1 c #54463A",
"2 c #57483A",
"3 c #5B4A3A",
"4 c #634E3B",
"5 c #654F3C",
"6 c #694F38",
"7 c #67503B",
"8 c #67503C",
"9 c #6B513B",
"0 c #6C523B",
"q c #6A513C",
"w c #6D533C",
"e c #70543C",
"r c #75573C",
"t c #77583D",
"y c #78593C",
"u c #7C5A3D",
"i c #7F5C3D",
"p c #454040",
"a c #464040",
"s c #474342",
"d c #494343",
"f c #484442",
"g c #484443",
"h c #4C4742",
"j c #494444",
"k c #4B4747",
"l c #4C4747",
"z c #4E4845",
"x c #4C4847",
"c c #4F4B4B",
"v c #4F4C4A",
"b c #4F4B4C",
"n c #504B45",
"m c #534C46",
"M c #504B4B",
"N c #504C48",
"B c #534D4A",
"V c #504C4C",
"C c #575049",
"Z c #59514B",
"A c #605750",
"S c #625952",
"D c #805C3C",
"F c #845E3D",
"G c #87603D",
"H c #89603D",
"J c #8E633E",
"K c #8F643E",
"L c #91653E",
"P c #94663E",
/* pixels */
"aaaaaaaaaaaaaaaaaaaaaaaaaaaaaaaaaaaaaaaaaaaaaaaaaaaaaaaaaaaaaaaa",
"aaaaaaaaaaaaaaaaaaaaaaaaaaaaaaaaaaaaaaaaaaaaaaaaaaaaaaaaaaaaaaaa",
"aaaaaaaaaaaaaaaaaaaaaaaaaaaaaaaaaaaaaaaaaaaaaaaaaaaaaaaaaaaaaaaa",
"aaaaaaaaaaaaaaaaaaaaaaaaaaaa-aaaaaaaaaaaaaaaaaaaaaaa--aaaaaaaaaa",
"aaaaaaaaaaaaaaaaaaaaaaaaaaaa%-aaaaaaaaaaaaaaaaaaaaa-%-aaaaaaaaaa",
"cjjjaaaaaaaaaaa-aaaaaaaaaajd#acccccjjjaaaaaaaaaaaa*#@&gdaaaajjjc",
"cccccdaaaaaaaa-&aaaaaaaajccj#:bccccccccjaaaaaaaa-&++@%>gxddccccc",
"cccccclaaaaaaa-%aaaaaadcccV*@-cccccccccccdaaaaa-$+++#%&>hnmvcccc",
"ccccccccjaaaaa%@-aaajcccccV%@&cccvvccccccbcja-&@OO++@%&>>gxmBccc",
"ccccccccccjjda$O-jjcbccVVc-+%&xccccccccccccMj$+OO++@@$%&>>gxnccc",
"cccccccccccccc%o$cVcjjj-&#oO%%acccccccccccca$OOO+++@@$%&>>>>gccc",
"cccccccccccccj@oO%&#OOOooooO%%-cccccccccccc@OOO+++@@@$%%&>>>>xcc",
"ccccccccjcccbjOoooooooooooo+%%&gcjajccccccc*OO++++@@@#%%&:>>gxcc",
"ccccccj%*accV&ooooooooooooo#%%%&xjjacccccccj@++++@@@@#%%%-::cccc",
"jjjccV*%j-Vc-OooooooOO##%%#&&&&&&-aacccccccca-%@@%#@@%&%&=--cjjj",
"aaaajc*#-g:#oooOO##%&&****------&*-aadjcccccVVcx:-&%#&-&----aaaa",
"aaaaada&@+OO##%&&*********--->4>--aaaaaajcccccccg---2>53----aaaa",
"aaaaaaad:%&&***************--wKr--aaaaaaaadjccccj--rF2HJw---aaaa",
"aaaaaaaaad:**********--****->wru>-aaaaaaaaa--aajj-2FD35w2>--aaaa",
"aaaaaaaaaaa-*****--17yD-****>FF9-:aaaaaaaa-%-aaa:->1422DG4--aaaa",
"aaaaaaaaaaa-****1yieLJu-**&--3D3-aaaaaaaaa&#-aaa:->uJtqLF>--aaaa",
"aaaaaaaaaaa-****2Fy3qe3***&*-->--aaaaaaaa*#%-aaaa--3yD2e3---aaaa",
"aaaaaaaaaaaa-****3u0yJ7*****-----aaaaaaa-##%-aaaa--*->------:aaa",
"aaaaaaaaaaaa-****2JFeP7*****-----aaaaaa-%@$%-aaaa:-****-*----aaa",
"aaaaaaaaaaaa:****-44271*****----:aaaaa-%##%%&:aaaa--******---aaa",
"aaaaaaaaaaaaa-***************---:aaaaa*##$%%&-aaaaa--*****---:aa",
"jaaaaaaaaaaaa-***************---jjaaa-###$&%&-aaaaaa--****----dj",
"ccccjjaaaaaaaa-**********&&&&--dccccd%#$#&3;%-aaaaaaaa-****--dcc",
"cccccccjaaaaaa-&&&%%%%%%&&%%%&=gccccg%###;54=-aaaaaaaaa-***---cc",
"ccccccccccjjaa-####@@###%%%%%%&gccccc&$#%=<;&aaaaaaajjd-***--:cc",
"cccccccccccccj%##@@##@##%%%%%%%-ccccc-&%%&&%&gccjjcccj-**----jcc",
"ccccccccccccc&#@##@#@@#%%%%%%%%&gcccg**&&&&--jcccccc:***-----ccc",
"cccccccccccca######@@@@%%%%%%%%%&ccca**-->>>:cccccj:**------dccc",
"cccccccccccx$@#####@@##%%%%%%%%%&xcc:**->wwyhccccj***-------jccc",
"ccccccccccc*#@###@##@#$%%%%%%%%%%:c:***-5r58jcccca**-------:cccc",
"cccccccccV-@#@@###@#@@$%%%%%%%%%%%%****-eee>ccccc:**-==&---gcccc",
"ccccccccba#@@#####@@@#%%%%%%%%%%%%%****->>>dccccc-**->6,;=-ccccc",
"ccccccccc%##@@###@@###%%%%%%%%%%%%$&***----jccccc-**--qwy4-ccccc",
"jlcccccc&@@##@####@##$%%%%%%%%%%%%%%**----gcccccj***-->542-ccclj",
"aadjcccg#@@@@###@@@@##%%%%%%%%%%%%%%*----jcccccca***---wq>acjdaa",
"aaaaadcc:%##@@##@@###%%%%%%%%%%%%%%%--aaaaajjjcca***---12--aaaaa",
"aaaaaaadg-&&%##@@@@##%%%%%%%%%%%%%%%-aaaaaaaaaaj-***-------aaaaa",
"aaaaaaaaa-***&&&%#@@#%%%%%%%&&&&&&&&-aaaaaaaaaa-****-------aaaaa",
"aaaaaaaaa-**>-***&%%%%%&&&&&==-------aaaaaaaaaaa-***------:aaaaa",
"aaaaaaaaaa--te2>-****&&------->-----:aaaaaaaaaaa-****-----:aaaaa",
"aaaaaaaaaa--3r455-*****----33eD>--------aaaaaaaa:****-----:aaaaa",
"aaaaaaaaaaa-2DueD-**&&*---4JrFH>-&%%####*aaaaaaaa-***------aaaaa",
"aaaaaaaaaaa--3w3w>$@+-**-->Dy49-&@@@@@@@#*aaaaaaa-***-h:---aaaaa",
"aaaaaaaaaaaa-1<5D4oO-B-**--3qq4-#O@@@@@@@#-aaaaaa:***-nBx:-:aaaa",
"aaaaaaaaaaaaa**-2,$xZZg**-->Fe3&+o+@@@@@@@%-aaaaaa-***nZZZg-aaaa",
"aaaaaaaaaa-aa-****nZmBx***--32-#OoO@@@@@@#$-aaaaaa-***hZmZh-aaaa",
"aaaa--a$-a+*aa-**&-CmBB-**-----&%@O+##%%%&--aaaaaaa-**>ZmZh-aaaa",
"cjaa*+do*aX$aa-**&@BBmB-***-----*&%#&--->:-:aaaaaaa-**-CZZh-ajjc",
"bV$a*X* X+ o-aa-*&+>ZmZg****----=**--:mZZh-aaaaaaaa:**-nBZx-xccc",
"bcO @ +%X*o*aaaaa-*%ZmBx**&*-----&*--gASSh:ljdaaaaaa-*-hBmn-gccc",
"bc-Oj@ga@go-jjjcccclBZBB-*&*------*-->BAZ:gccccccjjjg*-hZZC-dccc",
"bcV$-+**.o $ccccccccBZZBcga-------*---ZSZ-jcccccccccc-*gZBB--ccc",
"bcV$.o.$o$@VcccccccccBBccccccggggd-*--nSZ:ccccccccccca-:ZZC--jcc",
"cccaO-@V$*$VcccccccccMMccccccbccccj:--gZBcccccccccccccclBZB:-gcc",
"cccV-a-Vcccbccccccccccccccljjjdaadjjjjcccccccccccccccccccccccccc",
"ccccMMMcbbcccccccccccjjjaaaaaaaaaaaaaaaajjjccccccccccccccccccccc",
"jcccccccbcccccccccdaaaaaaaaaaaaaaaaaaaaaaaaaadccccccccccMccccccj",
"aadjcccccccccljdaaaaaaaaaaaaaaaaaaaaaaaaaaaaaaaadjcccccccccljdaa",
"aaaaaaajjjjaaaaaaaaaaaaaaaaaaaaaaaaaaaaaaaaaaaaaaaaaajjjjaaaaaaa"
};
