/* XPM */
static char *dca0253f016d4bccacf66cc0eb27923bmzkJY74DcdpGF4uv[] = {
/* columns rows colors chars-per-pixel */
"64 64 66 1 ",
"  c #2F2A2A",
". c #312C2C",
"X c #363131",
"o c #3A3535",
"O c #3E3A3A",
"+ c #443E3E",
"@ c #464040",
"# c #4A4545",
"$ c #4F4B4B",
"% c #524D4D",
"& c #555151",
"* c #5A5555",
"= c #5E5959",
"- c #615D5D",
"; c #666262",
": c #696363",
"> c #736C6C",
", c #767171",
"< c #7B7575",
"1 c #7D7A7A",
"2 c #837D7D",
"3 c #8C8484",
"4 c #8F8989",
"5 c #928B8B",
"6 c #969292",
"7 c #9B9595",
"8 c #9E9999",
"9 c #A09696",
"0 c #A59D9D",
"q c #A5A1A1",
"w c #ACA3A3",
"e c #AEA9A9",
"r c #B1A7A7",
"t c #B2ACAC",
"y c #B5B0B0",
"u c #BCB2B2",
"i c #B9B4B4",
"p c #B9B5B5",
"a c #BFB5B5",
"s c #C1B6B6",
"d c #C2B8B8",
"f c #C5BBBB",
"g c #C6BDBD",
"h c #CABFBF",
"j c #CAC3C3",
"k c #CDC2C2",
"l c #CAC5C5",
"z c #CDC5C5",
"x c #CFC8C8",
"c c #D2C7C7",
"v c #D3C8C8",
"b c #D4C8C8",
"n c #D3CFCF",
"m c #D4CCCC",
"M c #D8CFCF",
"N c #D6D0D0",
"B c #D9D1D1",
"V c #DCD3D3",
"C c #DAD6D6",
"Z c #DDD5D5",
"A c #DFD8D8",
"S c #E0D9D9",
"D c #E1DDDD",
"F c #E4DEDE",
"G c #E6E1E1",
"H c #E9E6E6",
/* pixels */
"@@@@@@@@@@@@@@@@@@@@@@@@@@@@@@@@@@@@@@@@@@@@@@@@@@@@@@@@@@@@@@@@",
"@@@@@@@@@@@@@@@@@@@@@@@@@@@@@@@@@@@@@@@@@@@@@@@@@@@@@@@@@@@@@@@@",
"@@@@@@@@@@@@@@@@@@@@@@@@@@@@@@@@@@@@@@@@@@@@@@@@@@@@@@@@@@@@@@@@",
"@@@@@@@@@@@@@@@@@@@@@@@@@@@@@@@@@@@@@@@@@@@@@@@@@@@@@@@@@@@@@@@@",
"@@@@@@@@@@@@@@@@@@@@@@@@@@@@@@@@@@@@@@@@@@@@@@@@@@@@@@@@@@@@@@@@",
"$###@@@@@@@@@@@@@@@++++@@@###$$$$$$###@@@@@@@@@@@@@@@@@@@@@@###$",
"$$$$$#@@@@@@@@@@@@+%45%+#$$$$$$$$$$$$$$#@@@@@@@@@@@@@@@@@@#$$$$$",
"$$$$$$#@@@@@@@@@@+#0MZt%$$$$$$$$$$$$$$$$$#@@@@@@@@@@@@@@@#$$$$$$",
"$$$$$$$$#@@@@@@@@+%fvbn-$$$$$$$$$$$$$$$$$$$#@@@@@@@@@@@#$$$$$$$$",
"$$$$$$$$$$###@@@@#%0cbl=$$$$$$$$$$$$$$$$$$$$$##@@@@###$$$$$$$$$$",
"$$$$$$$$$$$$$$$$$$$-fZ0$$$$$$$$$$$$$$$$$$$$$$$$$$$$$$$$$$$$$$$$$",
"$$$$$$$$$$$$$$$$$$$=dB1$$$$$$$$$$$$$$$$$$$$$$$$$$$$$$$$$$$$$$$$$",
"$$$$$$$=&$$$$$$$$$$,kz=$$$$$$$$$$$$$$$$$$$$$$$$$$$$$$$$$$$$$$$$$",
"$$$$$$2ny=$$$$$$$$#5bz-$$$$$$$$$$$$$$$$$$$$$$$$$$$$$$$$$$$$$$$$$",
"###$$=dMS8&$$$$$$$-wbx;$$$$$$#@@@@#$$$$$$$$$$$$$$$$$$$$$$$$$$###",
"@@@@#&0bbBt=#$$$&2jvcZy&$##@@@@+$*$@@##$$$$$$$#$$$$$$$$$$$$#@@@@",
"@@@@@#&35eBp6;=1pmkckmD2@@@@@+#=evw$+@@@#$$$$$+#$$$$$$$$$##@@@@@",
"@@@@@@++@&eMZvvmg37b79BC<++++=wzmbh&+@@@@@##$$+#$$$$$$$#@@@@@@@@",
"@@@@@@@@@+>kcbc5*+3m3$wZC8568zBvff9#@@@@@@@@@@oO####@@@@@@@@@@@@",
"@@@@@@@@@@#0bcBt%+3m3+:fBZMSZba3*%#+@@@@@@@@@@o.+@@@@@@@@@@@@@@@",
"@@@@@@@@@@+2vdrDy%3M3+*ybccva3&+++@@@@@@@@@@@@o X+@@@@@@@@@@@@@@",
"@@@@@@@@@@+*g5%0Ft7k,,zZkhbe&++@@@@@@@@@@@@@@@o  X+@@@@@@@@@@@@@",
"@@@@@@@@@@+%f3+%0BmhpmMw>eV4+@@@@@@@@@@@@@@@@@o   XO+@@@@@@@@@@@",
"@@@@@@@@@@+%f3++%rbvba3%&fv=+@@@@@@@@@@@@@@@@+X    ..ooooo+@@@@@",
"@@@@@@@@@@+%f3+%6zbbz;++2bl&+@@@@@@@@@@@@@@@@+.         XO@@@@@@",
"@@@@@@@@@@+>z5,pZatbBt%+5V8+@@@@@@@@@@@@@@@@@+.        .+@@@@@@@",
"#@@@@@@@@+#8Mzmj3%3tfZt-um,+@@####@@@@@@@@@@@+.        o@@@@@@@#",
"$$$$##@+@%6Cvvz<++33>fBpjz*#$$$$$$$$##@@@@@@@+.       .+@@##$$$$",
"$$$$$$$*;lvbvcBp>+33+2kbvx;$$$$$$$$$$$$#@@@@@+.       .+#$$$$$$$",
"$$$$=6qnmZbffkmSC<573ucbbB7$$$$$$$$$$$$$$###@+.       .@$$$$$$$$",
"$$$$6GAmhw3-*<scBmzkvbs5wbx;$$$$$$$$$$$$$$$$$#.        o$$$$$$$$",
"$$$$5mbs;&$$$$-0cvbbg5-$*eZ7$$$$$$$$$$$$$$$$$#oO.       o$$$$$$$",
"$$$$*0s<$$$$$$$*0vvh<$$$$>hm2$$$$$$$$$$$$$$$$#+%@.       o$$$$$$",
"$$$$$&=$$$$$$$$$*wB8$$$$$$<cN8=$$$$$$$$$$$$$$#+$#@.     .+$$$$$$",
"$$$$$$$$$$$$$$$$$4B1$$$$$$%wVH6$$$$$$$$$$$$$$$+@+$@.    o$$$$$$$",
"$$$$$$$$$$$$$$$$$5x=$$$$$$$3bB7$$$$$$$$$$$$$$$@O+$$o   .@%$$$$$$",
"$$$$$$$$$$$$$$$$&wx-$$$$$$$*0s,###$$$$$$$#$$$$$@$$%O   o$$$$$$$$",
"$$$$$$$$$$$$$$$$=fj=$$$$$$$#$%@@@@@##$$$Oo@$$$$O@$%O   O%$$$$$$$",
"##$$$$$$$$$$$$$$-jq$$$$$$#@@++@@@@@@@@++##o$$+O..@%O   +%$$$$$##",
"@@##$$$$$$$$$$$&0bC1$$$#@@@@@@@@@@@@+o.O@+O$%#.  .+o  .#$$$$##@@",
"@@@@@#$$$$$$$$$=sbD6@@@@@@@@@@@@@@@+X  o++@###O   .   .#$$#@@@@@",
"@@@@@@@@##$$$$$$>de%+@@@@@@@@@@@@+o.   .X+@@@@+.      .@#@@@@@@@",
"@@@@@@@@@@@@@@@@@%$+@@@@@@@@@@@@OX       X++@@@o      .+@@@@@@@@",
"@@@@@@@@@@@@@@@@@++@@@@@@@@@@@+o.         .Xooo.      .+@@@@@@@@",
"@@@@@@@@@@@@@@@@@@@@@@@@@@@@@OX                       .+@@@@@@@@",
"@@@@@@@@@@@@@@@@@@@@@@@@@@@+o.                         o@@@@@@@@",
"@@@@@@@@@@@@@@@@@@@@@@@@@@OX                           o@@@@@@@@",
"@@@@@@@@@@@@@@@@@@@@@@@@+o.                            X+@@@@@@@",
"@@@@@@@@@@@@@@@@@@@@@@+O.                       ..oooX..O@@@@@@@",
"@@@@@@@@@@@@@@@@@@@@@+oXooo..                  .O+@@@++XX+@@@@@@",
"@@@@@@@@@@@@@@@@@@@@@+O+@@@+@O.       Xoo..   .+@@@@@@@+oO@@@@@@",
"@@@@@@@@@@@@@@@@@@@@@@@@@@#$$%@o   .o+@@@+O. .+@@@@@@@@@+oO@@@@@",
"$##@@@@@@@@@@@@@@@@@@@@@#$$$$$%$o  O$$$#@@@o o@@@@@@@@@@@+o+@##$",
"$$$$$#@@@@@@@@@@@@@@@@#$$$$$$$$$#..@$$$$$#@+X+@@@@@@@@@@@@#$$$$$",
"$$$$$$$$#@@@@@@@@@##$$$$$$$$$$$$$O.$$$$$$$$$@@@@@@@@@@@#$$$$$$$$",
"$$$$$$$$$$#####$$$$$$$$$$$$$$$$$$#+$$$$$$$$$$$$$$#####$$$$$$$$$$",
"$$$$$$$$$$$$$$$$$$$$$$$$$$$$$$$$$$#$$$$$$$$$$$$$$$$$$$$$$$$$$$$$",
"$$$$$$$$$$$$$$$$$$$$$$$$$$$$$$$$$$$$$$$$$$$$$$$$$$$$$$$$$$$$$$$$",
"$$$$$$$$$$$$$$$$$$$$$$$$$$$$$$$$$$$$$$$$$$$$$$$$$$$$$$$$$$$$$$$$",
"$$$$$$$$$$$$$$$$$$$$$$$$$$#####@@####$$$$$$$$$$$$$$$$$$$$$$$$$$$",
"$$$$$$$$$$$$$$$$$$$$$###@@@@@@@@@@@@@@@@###$$$$$$$$$$$$$$$$$$$$$",
"#$$$$$$$$$$$$$$$$$#@@@@@@@@@@@@@@@@@@@@@@@@@@#$$$$$$$$$$$$$$$$$#",
"@@##$$$$$$$$$###@@@@@@@@@@@@@@@@@@@@@@@@@@@@@@@@##$$$$$$$$$###@@",
"@@@@@@@####@@@@@@@@@@@@@@@@@@@@@@@@@@@@@@@@@@@@@@@@@@####@@@@@@@"
};
