/* XPM */
static char *d4e3d3e155034fccaf574b05862c5100fdQyUzs1vfIdLHpI[] = {
/* columns rows colors chars-per-pixel */
"64 64 75 1 ",
"  c #040404",
". c #080707",
"X c #0C0B0B",
"o c #100F0F",
"O c #141313",
"+ c #181616",
"@ c #1B1919",
"# c #211E1E",
"$ c #252323",
"% c #282626",
"& c #2C2A2A",
"* c #322E2E",
"= c #382F2F",
"- c #353232",
"; c #3A3434",
": c #3E3A3A",
"> c #433E3E",
", c none",
"< c #4A4545",
"1 c #4F4B4B",
"2 c #514C4C",
"3 c #555252",
"4 c #5B5555",
"5 c #5D5959",
"6 c #625D5D",
"7 c #656161",
"8 c #6A6666",
"9 c #6E6969",
"0 c #736D6D",
"q c #777373",
"w c #7A7474",
"e c #7D7A7A",
"r c #827D7D",
"t c #858080",
"y c #8B8686",
"u c #8E8989",
"i c #928D8D",
"p c #959191",
"a c #989494",
"s c #999494",
"d c #9B9898",
"f c #9E9A9A",
"g c #9F9C9C",
"h c #A09797",
"j c #A19B9B",
"k c #A09C9C",
"l c #A49F9F",
"z c #A99F9F",
"x c #A5A0A0",
"c c #ABA3A3",
"v c #AAA5A5",
"b c #ADA6A6",
"n c #ACA8A8",
"m c #B2ABAB",
"M c #B0ACAC",
"N c #B4ADAD",
"B c #B5B1B1",
"V c #B6B1B1",
"C c #B8B2B2",
"Z c #BBB5B5",
"A c #BDB6B6",
"S c #BEB8B8",
"D c #C3B7B7",
"F c #C3BBBB",
"G c #C4BBBB",
"H c #C7BEBE",
"J c #CABFBF",
"K c #CBC2C2",
"L c #CDC1C1",
"P c #D0C3C3",
"I c #D1C7C7",
"U c #D6C9C9",
"Y c #DACCCC",
"T c #DED0D0",
"R c #E3D3D3",
/* pixels */
",,,,,,,,,,,,,,,,,,,,,,,,,,,,,,,,,,,,,,,,,,,,,,,,,,,,,,,,,,,,,,,,",
",,,,,,,,,,,,,,,,,,,,,,,,,,,,,,,,,,,,,,,,,,,,,,,,,,,,,,,,,,,,,,,,",
",,,,,,,,,,,,,,,,,,,,,,,,,,,,,,,,,,,,,,,,,,,,,,,,,,,,,,,,,,,,,,,,",
",,,,,,,,,,,,,,,,,,,,,,,,,,,,,,,,,,,,,,,,,,,,,,,,,,,,,,,,,,,,,,,,",
",,,,,,,,,,,,,,,,,,,,,,,,,,,,,,,,,,,,,,,,,,,,,,,,,,,,,,,,,,,,,,,,",
",,,,,,,,,,,,,,,,,,,,,,,,,,,,,,,,,,,,,,,,,,,,,,,,,,,,,,,,,,,,,,,,",
",,,,,,,,,,,,,,,,,,,,,,,,,,,,,,,,,,,,,,,,,,,,,,,,,,,,,,,,,,,,,,,,",
",,,,,,,,,,,,,,,,,,,,,,,,,,,,,,,,,,,,,,,,,,,,,,,,,,,,,,,,,,,,,,,,",
",,,,,,,,,,,,,,,,,,,,,,,,,,,,,,,,,,,,,,,,,,,,,,,,,,,,,,,,,,,,,,,,",
",,,,,,,,,,,,,,,,,,,,,,,,,,,,,,,,,,,,,,,,,,,,,,,,,,,,,,,,,,,,,,,,",
",,,,,,,,,,,,,,,,,,,,,,,,,,,,,,,,,,,,,,,,,,,,,,,,,,,,,,,,,,,,,,,,",
",,,,,,,,,,,,,,,,,,,,,,,,,,,,,,,,,,,,,,,,,,,,,,,,,,,,,,,,,,,,,,,,",
",,,,,,,,,,,,,,,,,,,,,,,,,,,,13545531,,,,,,,,,,,,,,,,,,,,,,,,,,,,",
",,,,,,,,,,,,,,,,,,,,,,,,,14trsNNAFliw31,,,,,,,,,,,,,,,,,,,,,,,,,",
",,,,,,,,,,,,,,,,,,,,,,,,10jVMMMMVVVFGc01,,,,,,,,,,,,,,,,,,,,,,,,",
",,,,,,,,,,,,,,,,,,,,,,13rvNMMMMMMMMnMHGi41,,,,,,,,,,,,,,,,,,,,,,",
",,,,,,,,,,,,,,,,,,,,,13iMMMMMMMMMMMMMnAIj31,,,,,,,,,,,,,,,,,,,,,",
",,,,,,,,,,,,,,,,,,,,,<yMMMMMMMMMMMMMMMMAKh1<,,,,,,,,,,,,,,,,,,,,",
",,,,,,,,,,,,,,,,,,,,>7nMMMMMMMMMMMMMMMMMHL0>,,,,,,,,,,,,,,,,,,,,",
",,,,,,,,,,,,,,,,,,,,<iMMMMMMMMMMMMMMMMMMMKz<,,,,,,,,,,,,,,,,,,,,",
",,,,,,,,,,,,,,,,,,,>7nMMMMMMMMMMMMMMMMMMMZK0>,,,,,,,,,,,,,,,,,,,",
",,,,,,,,,,,,,,,,,,,>rMMnnMMMMMMMMMMMMMVMnfCi>,,,,,,,,,,,,,,,,,,,",
",,,,,,,,,,,,,,,,,,>2kMMdsMMMMMMMMMMMZSCMkuNC2>,,,,,,,,,,,,,,,,,,",
",,,,,,,,,,,,,,,,,,>2xMMnyxMMANMMMMMAANMvivMC2>,,,,,,,,,,,,,,,,,,",
",,,,,,,,,,,,,,,,,,>7vMMu36pMZAMMMMACMni6tMMM2>,,,,,,,,,,,,,,,,,,",
",,,,,,,,,,,,,,,,,,>rMMj<==2gMVMMMMxxk8>=<kMb3>,,,,,,,,,,,,,,,,,,",
",,,,,,,,,,,,,,,,,>2kMMw=;;;2egMMMMx8<;=;=wMMr>,,,,,,,,,,,,,,,,,,",
",,,,,,,,,,,,,,,,>1uMMMy;=;;=9MMMMMx2=;;;=wMMb3>,,,,,,,,,,,,,,,,,",
",,,,,,,,,,,,,,,,,wMMMMn6;==<uMMMMMM0====<jMMNr,,,,,,,,,,,,,,,,,,",
",,,,,,,,,,,<,>,,2kMviMMvy0wjMlsslMMx0<>4iMMMMb2,,,,,,,,,,,,,,,,,",
",,,,,,,,,,,,<&*,2pMn0qsMMMMMv4006ikMMxkvnvMivp2,,,,,,,,,,,,,,,,,",
",,,,,,,,,,,,,,*&,8vMy1qksMMMl2ut2iwkMvnvvtq0n91,,,,,,,,,,,,,,,,,",
",,,,,,,,,,,,,,,;@&8vvk5<yvpvnxMurt>&eexiuq-pp2,,,,,&$:,,,,,,,,,,",
",,,,,,,,,,,,,,,,,#@5vMt5-:7vMpvv8%++#5ki<:qi911,,$O%,,,,,,,,,,,,",
",,,,,,,,,,,,,,,,,<&O<spMt:*3i8pf,+@@+#%&<tv0,;&+O%,,,,,,,,,,,,,,",
",,,,,,,,,,,,,,,,,,,;O,xVfwkt2&*%++++#*5rvu3%+O+&,,,,,,,,,,,,,,,,",
",,,,,,,,,,,,,,,,,,,,,#,fsxMVret,5<557kMVe%oO+&,,,,,,,,,,,,,,,,,,",
",,,,,,,,1-#OOOX.@&%%%$X%3ekMpvVpnrkVeis6#XX$:,,,,,,,,,,,,,,,,,,,",
",,,,,,,,,,,,,&&&OOX...XX.X%3effgfpi6<@@XX..OO%&&&&&%&>,,,,,,,,,,",
",,,,,,,,,,,,,,,,,,;&%XXOXOOOOO#@@@@  XOOOXXX.....XOX.X#*&>,,,,,,",
",,,,,,,,,,,,,,,,,,,,,;&@.XO+OXX.  .X XXOX.  O$%%%;<,,,,,,,,,,,,,",
",,,,,,,,,,,,,,,,<>;$@OOOOXX.. .   X55@ .Xoo.O$*,,,,,,,,,,,,,,,,,",
",,,,,,,,,,,,,,>*$+..XXXOX   ;86&..,JTl@X. XoX.XX#$;>,,,,,,,,,,,,",
",,,,,,,,,,,:*@..XOoX .OOXXOO6TUNwiGYYD%+@++@OO%&@XXO$$;>,,,,,,,,",
",,,,,,,,,;@O$#$$*:::#O@@@@@o$mUUYUUUUA;O@@@@@+:<>>::*#&>,,,,,,,,",
",,,,,,,,,>::,,,,,,<:O@@@@@@oO9UUYUUUYyoO@@@@@O%,,,,,,,,,,,,,,,,,",
",,,,,,,,,,,,,,,,,,>#+@@@@@+oO,GYUUUUJ,X+@@@@@@O;,,,,,,,,,,,,,,,,",
",,,,,,,,,,,,,,,,,,*O@@@@@@+o@@yYUUURu@OO@@@@@@O%,,,,,,,,,,,,,,,,",
",,,,,,,,,,,,,,,,,>@+@@@@@@OO@O5UYUUP,OOO@@@@@@@O:,,,,,,,,,,,,,,,",
",,,,,,,,,,,,,,,,,*O@@@@@@@oO@@%MYUYy@@Oo@@@@@@@O*,,,,,,,,,,,,,,,",
",,,,,,,,,,,,,,,,;O@@@@@@@@ooO@O0RYL>O+XX@@@@@@@+@>,,,,,,,,,,,,,,",
",,,,,,,,,,,,,,,,%O@@@@@@@@o+OOO,JYu@@OOo@@@@@@@@O*,,,,,,,,,,,,,,",
",,,,,,,,,,,,,,,*+@@@@@@@@+o@@OO@uL,OOO+o+@@@@@@@+@>,,,,,,,,,,,,,",
",,,,,,,,,,,,,,>@+@@@@@@@@+o@@+OO6y@OO@@o+@@@@@@@@@;,,,,,,,,,,,,,",
",,,,,,,,,,,,,,*O@@@@@@@@@OO@@@+O#*OO@@@o+@@@@@@@#;,,,,,,,,,,,,,,",
",,,,,,,,,,,,,<%+@@@@@@@@@o+@@@@+XXO+@@@o+@@@@@@&,,,,,,,,,,,,,,,,",
",,,,,,,,,,,,,,<-#@@@@@@@@X+@@@@@+O+@@@@OO@@@@&:,,,,,,,,,,,,,,,,,",
",,,,,,,,,,,,,,,,<-#@@@@@+o@@@@@@@@@@@@@+o@@&:,,,,,,,,,,,,,,,,,,,",
",,,,,,,,,,,,,,,,,,<;&#@@+O@@@@@@@@@@@@@@@-:,,,,,,,,,,,,,,,,,,,,,",
",,,,,,,,,,,,,,,,,,,,,<;-##@@@@@@@@@##%-:<,,,,,,,,,,,,,,,,,,,,,,,",
",,,,,,,,,,,,,,,,,,,,,,,,,,:*******;,,,,,,,,,,,,,,,,,,,,,,,,,,,,,",
",,,,,,,,,,,,,,,,,,,,,,,,,,,,,,,,,,,,,,,,,,,,,,,,,,,,,,,,,,,,,,,,",
",,,,,,,,,,,,,,,,,,,,,,,,,,,,,,,,,,,,,,,,,,,,,,,,,,,,,,,,,,,,,,,,",
",,,,,,,,,,,,,,,,,,,,,,,,,,,,,,,,,,,,,,,,,,,,,,,,,,,,,,,,,,,,,,,,"
};
