/* XPM */
static char *_9026f96c01a45d499b325b67a55e3eccIiMPabSgPWxleDL[] = {
/* columns rows colors chars-per-pixel */
"64 64 19 1 ",
"  c #464040",
". c #474141",
"X c #4C4848",
"o c #4B4646",
"O c #494444",
"+ c #4E4A4A",
"@ c #4F4B4B",
"# c #4D4848",
"$ c #494343",
"% c #4C4747",
"& c #474242",
"* c #4B4545",
"= c #4A4545",
"- c #4A4646",
"; c #4E4949",
": c #4A4444",
"> c #484343",
", c #4B4747",
"< c white",
/* pixels */
"                                                                ",
"                                                                ",
"                                                                ",
"                                                                ",
"                             ......                             ",
"XooO                     .Ooo++++++ooO.                     OooX",
"@@@@#$                  O+@@@@@@@@@@@@+O                  $#@@@@",
"@@@@@@%.             .$#@@@@@@@@@@@@@@@@#$.             .%@@@@@@",
"@@@@@@@+O.         .o+@@@@@@@@@@@@@@@@@@@@+o.         .O+@@@@@@@",
"@@@@@@@@@+oo$...&*o+@@@@@@@@@@@@@@@@@@@@@@@@+o*&...Ooo+@@@@@@@@@",
"@@@@@@@@@@@@+++++@@@@@@@@@@@@@@@@@@@@@@@@@@@@@@++++@@@@@@@@@@@@@",
"@@@@@@@@@@@@@@@@@@@@@@@@@@@@@@@@@@@@@@@@@@@@@@@@@@@@@@@@@@@@@@@@",
"@@@@@@@@@@@@@@@@@@@@@@@@@@@@@@@@@@@@@@@@@@@@@@@@@@@@@@@@@@@@@@@@",
"@@@@@@@@@@@@@@@@@@@@@@@@@@@@@@++++@@@@@@@@@@@@@@@@@@@@@@@@@@@@@@",
"==-;@@@@@@@@@@@@@@@@@@@@@@++X:....:X+@@@@@@@@@@@@@@@@@@@@@@@;-==",
"   .=@@@@@@@@@@@@@@@@@@@+->.       ..>-+@@@@@@@@@@@@@@@@@@@=.   ",
"     >-+@@@@@@@@@@@@@@X:.              .:X@@@@@@@@@@@@@@+->     ",
"       .:X++@@@@@++%=$                    $=X++@@@@@++X:.       ",
"         ...=====..                         ...=====..          ",
"                                                                ",
"                                                                ",
"                                                                ",
"                                                                ",
"                                                                ",
"                                                                ",
"                                                                ",
"*&.                         ..Ooo$.                         ..&*",
"@++XoO.                   Oo#+@@@++XoO                   .Oo#++@",
"@@@@@@+o&               $#@@@@@@@@@@@@#$               &o+@@@@@@",
"@@@@@@@@+Xo*&   ....OooX@@@@@@@@@@@@@@@@Xoo$...    &*oX+@@@@@@@@",
"@@@@@@@@@@@@+Xoo#+++@@@@@@@@@@@@@@@@@@@@@@@++++XooX+@@@@@@@@@@@@",
"@@@@@@@@@@@@@@@@@@@@@@@@@@@@@@@@@@@@@@@@@@@@@@@@@@@@@@@@@@@@@@@@",
"@@@@@@@@@@@@@@@@@@@@@@@@@@@@@@@@@@@@@@@@@@@@@@@@@@@@@@@@@@@@@@@@",
"@@@@@@@@@@@@@@@@@@@@@@@@@@@@@@@@@@@@@@@@@@@@@@@@@@@@@@@@@@@@@@@@",
"@@@@@@@@@@@@@@@@@@@@@@@@@@@@@@@@@@@@@@@@@@@@@@@@@@@@@@@@@@@@@@@@",
"@@@@@@@@@@@@@@@@@@@@@@@@@@@@@@@@@@@@@@@@@@@@@@@@@@@@@@@@@@@@@@@@",
"@@@@@@@@@@@@@@@@@@@@@@@@@@@@@;-==-;@@@@@@@@@@@@@@@@@@@@@@@@@@@@@",
"@@@@@@@@@@@@@@@@@@@@@@@@@@;->.    .>-;@@@@@@@@@@@@@@@@@@@@@@@@@@",
"=%@@@@@@@@@@@@@@@@@@@@@@X>.          .>X@@@@@@@@@@@@@@@@@@@@@@%=",
"  >-;@@@@@@@@@@@@@@@@+X:.              .:X+@@@@@@@@@@@@@@@@;->  ",
"    .>X+@@@@@@@@@+-==.                    .==-+@@@@@@@@@+X>.    ",
"       .==X++++X:.                            .:X++++%==.       ",
"          .....                                 .....           ",
"                                                                ",
"                                                                ",
"                                                                ",
"                                                                ",
"                                                                ",
"                                                                ",
"                              ....                              ",
"                            $,++++,$                            ",
"                         .*#@@@@@@@@#*.                         ",
"Xo$.                    O+@@@@@@@@@@@@+O                   ..OoX",
"@@++#*&             ..$#@@@@@@@@@@@@@@@@#$.              &*#+@@@",
"@@@@@@+#$.     ...Oo#+@@@@@@@@@@@@@@@@@@@++Xo$...     .$#+@@@@@@",
"@@@@@@@@@+ooooo+++@@@@@@@@@@@@@@@@@@@@@@@@@@@++++ooooo+@@@@@@@@@",
"@@@@@@@@@@@@@@@@@@@@@@@@@@@@@@@@@@@@@@@@@@@@@@@@@@@@@@@@@@@@@@@@",
"@@@@@@@@@@@@@@@@@@@@@@@@@@@@@@@@@@@@@@@@@@@@@@@@@@@@@@@@@@@@@@@@",
"@@@@@@@@@@@@@@@@@@@@@@@@@@@@@@+++@@@@@@@@@@@@@@@@@@@@@@@@@@@@@@@",
"@@@@@@@@@@@@@@@@@@@@@@@@++%===>..$===X++@@@@@@@@@@@@@@@@@@@@@@@@",
"@@@@@@@@@@@@@@@@@@++;-==..           ...==-;+@@@@@@@@@@@@@@@@@@@",
"-;@@@@@@@@@@@@@++X>..                      ..>X+@@@@@@@@@@@@@@;-",
" .$=X++@@@@++%=>.                             ..$=X++@@@@++%=$. ",
"    ..&*oo*&.                                     ..&*oo*&.     "
};
